/* XPM */
static char *result[] = {
/* columns rows colors chars-per-pixel */
"50 50 23 1 ",
"  c black",
". c #313131",
"X c #323232",
"o c gray20",
"O c #5B4929",
"+ c #5C4B29",
"@ c #5F4B29",
"# c #614C25",
"$ c #7E5E21",
"% c #7F5E21",
"& c #5B5B42",
"* c orange",
"= c #FFA401",
"- c #FFEB3B",
"; c #FFFF7B",
": c #FEFE7C",
"> c #FFFF7C",
", c #FEFE7D",
"< c #FFFF7D",
"1 c #FFFF7E",
"2 c #FFFF8D",
"3 c white",
"4 c None",
/* pixels */
"44444444444444444444444444444444444444444444444444",
"44444444444444444444444444444444444444444444444444",
"44444444444444444444444444444444444444444444444444",
"44444444444444444444444444444444444444444444444444",
"44444444444444444444444444444444444444444444444444",
"44444444444444444444444444444444444444444444444444",
"4444444      4444444444444444444444444444444444444",
"4444444      4444444444444444444444444444444444444",
"4444444      4444444444444444444444444444444444444",
"4444444      4444444444444444444444444444444444444",
"4444   ------    444444444444444444444444444444444",
"4444   ------    444444444444444444444444444444444",
"44  :,,111<<<::::                              444",
"44  :,,111<<<::::                              444",
"44  :,,111<<<::::                              444",
"44  <>><<222222<<                              444",
"44  <>><2222222<<      22222                   444",
"44  <>><2222<222222222222222222222222222222222   4",
"44  <>><ooXo<222222222222222222222222222222222   4",
"44  ;>>:....:222222222222222222222222222222222   4",
"44  ;>>:....:222222222222222222222222222222222   4",
"44  <::o3333o2222<********************=<22222<<  4",
"44  222o3333o2222<********************=<<22<22<  4",
"44  222X3333X22222OOOOO@@OOO++OOOOOOOOO&&222222  4",
"44  222X3333X22222OOOOO@@OOO++OOOOOOOOO&&222222  4",
"44  222o3333o22222                       222222  4",
"44  222o3333o22222                       222222  4",
"44  222<ooXo<<<<<o444444444444444444444  *2<<2*  4",
"44  222<ooXo<<<<<o444444444444444444444  *2<<2*  4",
"44  222<ooXo<<<<<o444444444444444444444  *2<<2*  4",
"44  222<22222<<<<o444444444444444444444  *2<22*  4",
"44  222<22222<<<<o444444444444444444444  *222<*  4",
"4444   222222    4444444444444444444444  *$ooo*  4",
"4444   222222    4444444444444444444444  *%ooo*  4",
"4444444      44444444444444444444444444   #444   4",
"4444444      44444444444444444444444444   #444   4",
"4444444      44444444444444444444444444   o444   4",
"4444444      44444444444444444444444444   o444   4",
"44444444444444444444444444444444444444444444444444",
"44444444444444444444444444444444444444444444444444",
"44444444444444444444444444444444444444444444444444",
"44444444444444444444444444444444444444444444444444",
"44444444444444444444444444444444444444444444444444",
"44444444444444444444444444444444444444444444444444",
"44444444444444444444444444444444444444444444444444",
"44444444444444444444444444444444444444444444444444",
"44444444444444444444444444444444444444444444444444",
"44444444444444444444444444444444444444444444444444",
"44444444444444444444444444444444444444444444444444",
"44444444444444444444444444444444444444444444444444"
};
