/* XPM */
static char *b0d112ff3aa047e5bfd1912a196b2577aHG82LHQk3ZM4tSw[] = {
/* columns rows colors chars-per-pixel */
"30 30 152 2 ",
"   c None",
".  c #DA770F",
"X  c #DD7B0C",
"o  c #D26F19",
"O  c #D67315",
"+  c #D97612",
"@  c #DB7A11",
"#  c #D87718",
"$  c #E27F06",
"%  c #E17E09",
"&  c #CB6723",
"*  c #CC6922",
"=  c #DE8015",
"-  c #E48204",
";  c #E88600",
":  c #EA8A02",
">  c #E3840E",
",  c #EE9205",
"<  c #EE950B",
"1  c #F29502",
"2  c #F49A06",
"3  c #F0960A",
"4  c #F39C0A",
"5  c #E38511",
"6  c #E68B13",
"7  c #E98F12",
"8  c #EF9B15",
"9  c #F39D12",
"0  c #FBA303",
"q  c #FFA904",
"w  c #F7A10B",
"e  c #F9A50C",
"r  c #FEAC0C",
"t  c #FFB00F",
"y  c #F6A514",
"u  c #F7A816",
"i  c #FBAD13",
"p  c #F6A51B",
"a  c #F7AA1C",
"s  c #F9AD1A",
"d  c #FFB214",
"f  c #FEB41B",
"g  c #FFB81E",
"h  c #F7AC23",
"j  c #FDB622",
"k  c #FFBB23",
"l  c #FAB229",
"z  c #FFBC2B",
"x  c #FAB531",
"c  c #FBBA32",
"v  c #FFBD31",
"b  c #FFBE30",
"n  c #FFBF31",
"m  c #FAB835",
"M  c #FBBA34",
"N  c #FFBF36",
"B  c #FFBD34",
"V  c #FBBA38",
"C  c #FBBD3D",
"Z  c #FDBD3B",
"A  c #FFC02A",
"S  c #FFC02B",
"D  c #FFC02C",
"F  c #FFC12C",
"G  c #FFC02D",
"H  c #FEC12D",
"J  c #FFC12D",
"K  c #FEC02E",
"L  c #FEC12F",
"P  c #FFC22E",
"I  c #FEC22F",
"U  c #FFC22F",
"Y  c #FFC32F",
"T  c #FFC12D",
"R  c #FEC130",
"E  c #FFC130",
"W  c #FFC230",
"Q  c #FFC330",
"!  c #FEC231",
"~  c #FFC331",
"^  c #FFC133",
"/  c #FFC332",
"(  c #FFC333",
")  c #FFC431",
"_  c #FFC432",
"`  c #FFC433",
"'  c #FFC533",
"]  c #FFC234",
"[  c #FFC036",
"{  c #FFC037",
"}  c #FFC434",
"|  c #FFC534",
" . c #FFC435",
".. c #FFC535",
"X. c #FFC635",
"o. c #FFC436",
"O. c #FFC437",
"+. c #FFC537",
"@. c #FFC636",
"#. c #FFC637",
"$. c #FFC737",
"%. c #FFC333",
"&. c #FFC03A",
"*. c #FFC33A",
"=. c #FFC439",
"-. c #FFC539",
";. c #FFC638",
":. c #FFC639",
">. c #FFC43A",
",. c #FFC63A",
"<. c #FFC73A",
"1. c #FFC13C",
"2. c #FFC33C",
"3. c #FFC23F",
"4. c #FFC43E",
"5. c #FFC43F",
"6. c #FFC53F",
"7. c #FFC73E",
"8. c #FFC63F",
"9. c #FFC23B",
"0. c #FCBF40",
"q. c #FFC240",
"w. c #FFC340",
"e. c #FFC341",
"r. c #FCC042",
"t. c #FEC540",
"y. c #FFC540",
"u. c #FFC441",
"i. c #FEC641",
"p. c #FFC641",
"a. c #FFC741",
"s. c #FEC543",
"d. c #FEC543",
"f. c #FFC840",
"g. c #FFC841",
"h. c #FFC843",
"j. c #FFC943",
"k. c #FFCA45",
"l. c #FFCA46",
"z. c #FFCA47",
"x. c #FFC946",
"c. c #FDC64A",
"v. c #FEC74B",
"b. c #FFCA4A",
"n. c #FFCB4A",
"m. c #FECA4B",
"M. c #FFCB4E",
"N. c #FFCC4D",
"B. c #FFCC4F",
"V. c #FFCA4B",
"C. c #FECB51",
"Z. c #FFCD50",
/* pixels */
"                      z S z k f y < ,                       ",
"                U U U S S S S z z j s 4 : ;                 ",
"              U U U ~ +.o.,.+._ z U z k u , ;               ",
"          U ~ _ +.7.k.a.t.t.a.f.7.*.U z k f 4 : ;           ",
"        U ~ +.f.z.t.c l l z ~ o.+.7.a.*.U k f < ; -         ",
"      ~ _ ,.k.b.M s f z Y Y U S A S ~ a.1.U k f 6 O O       ",
"      ~ ,.k.M.l w l _ _ _ _ Y U S S k z 7.1.c k a = O       ",
"    ~ +.k.M.l w k X._ +.+._ _ Y Y S A z z a.9.z f 9 @ +     ",
"  H _ f.C.V 4 f X.X.X.X.+.k k I I I A k g A t.9.k d > . X   ",
"  ~ <.m.c.u w ! X.X._ S f q 0 w a z A A k k { t.v f 9 % X   ",
"  _ i.B.M 2 j X.X.$.H r 0 0 0 3 < j A A k g k t.B k u > X   ",
"U +.z.C.a w H X.X.$.g 0 2 w e u u f k A k g g 9.N z i 6 + + ",
"S +.b.c.w e ' X.X.X.f 0 4 w w s h j k k k g f v e.z i 7 O O ",
"U +.N.r.w s ' X.X.X.k q 0 0 e s f f k k k g f k e.z d 8 X X ",
"S ,.N.C 3 s ' ' X.X.| f q 0 0 w s k k k k g f k e.c f 4 % % ",
"z ,.b.C 2 s I ' ' ' | | f 0 0 , < f g k g f f j C z f 2 - $ ",
"S +.b.0.3 i U _ Y _ _ _ Y d e w : u g g g f t k e.z i 2 - $ ",
"z ~ x.s.4 y S U F F S Y _ d e y ; u g g g f d z 1.j i 3 % X ",
"z U 7.b.p 4 k S A A d t k d e w : u g g f d t v B j r > . . ",
"  z +.b.x 1 d z A z d q q q 0 , < f f f d d f N z f w + o   ",
"  k U a.a.9 w k k A g i 0 0 0 e d f f d t r z B j i 7 * &   ",
"  k k ~ x.x 3 e g g k g i e e d d d d d r f B z d r 5 o o   ",
"    k z *.e.h 2 i g g g g i i i t t i r i z c f r 3 X X     ",
"      g z o.7.h w e f d f f i r r r r i z c f i 4 5 +       ",
"      j g z ~ N l y e r i i r r r r f z z f i 0 6 + +       ",
"        f g k z B c l a i i i d f z c j f r e 6 o o         ",
"          f f f k z z c z z z z z j f i r e 5 o o           ",
"              f d f f f j f j f d r r r 2 > o               ",
"                d d d d t t r r r e 2 1 ; -                 ",
"                      r r r r 0 2 1 ;                       "
};
