/* XPM */
static char *_6b341403aaf4dae9ba12d73b0698775IabPQ789YtVnvdd7[] = {
/* columns rows colors chars-per-pixel */
"40 40 165 2 ",
"   c None",
".  c #DA770E",
"X  c #DD7B0C",
"o  c #CF6C1D",
"O  c #D16E1B",
"+  c #D67215",
"@  c #D97612",
"#  c #DC7A12",
"$  c #D37019",
"%  c #E17E05",
"&  c #E07E09",
"*  c #C96525",
"=  c #DE801B",
"-  c #E58303",
";  c #E88600",
":  c #EB8C02",
">  c #E3830B",
",  c #E98C0D",
"<  c #EE9105",
"1  c #ED930C",
"2  c #F39600",
"3  c #F49A04",
"4  c #F99F00",
"5  c #F0970A",
"6  c #F49C0B",
"7  c #E28414",
"8  c #E58A13",
"9  c #EC9413",
"0  c #EF9910",
"q  c #E89118",
"w  c #F49E11",
"e  c #FDA502",
"r  c #FFAA06",
"t  c #F7A20C",
"y  c #F9A50B",
"u  c #FFAD0B",
"i  c #FFB00F",
"p  c #F5A313",
"a  c #F8A712",
"s  c #F7A814",
"d  c #FBAC12",
"f  c #F7A71A",
"g  c #F7AB1B",
"h  c #F9AD1B",
"j  c #FFB214",
"k  c #FEB51B",
"l  c #FFB81E",
"z  c #F7AB23",
"x  c #F9AE23",
"c  c #FEB622",
"v  c #FFBB23",
"b  c #FBB42A",
"n  c #FFBD2A",
"m  c #F9B634",
"M  c #FFBD33",
"N  c #FEBE3B",
"B  c #FFC12E",
"V  c #FEC12F",
"C  c #FFC12F",
"Z  c #FEC12E",
"A  c #FFC22E",
"S  c #FFC22F",
"D  c #FFC32F",
"F  c #FFC12C",
"G  c #FFC12C",
"H  c #FFC030",
"J  c #FFC130",
"K  c #FFC230",
"L  c #FFC330",
"P  c #FFC331",
"I  c #FFC132",
"U  c #FFC033",
"Y  c #FFC233",
"T  c #FFC333",
"R  c #FFC431",
"E  c #FFC432",
"W  c #FFC433",
"Q  c #FFC533",
"!  c #FFC034",
"~  c #FFC134",
"^  c #FFC335",
"/  c #FFC036",
"(  c #FFC136",
")  c #FEC237",
"_  c #FFC337",
"`  c #FFC434",
"'  c #FFC534",
"]  c #FFC435",
"[  c #FFC535",
"{  c #FFC635",
"}  c #FFC437",
"|  c #FFC537",
" . c #FFC636",
".. c #FFC637",
"X. c #FFC737",
"o. c #FFC433",
"O. c #FFC13A",
"+. c #FFC13B",
"@. c #FFC23B",
"#. c #FFC438",
"$. c #FFC538",
"%. c #FFC539",
"&. c #FFC639",
"*. c #FFC43A",
"=. c #FFC63A",
"-. c #FFC63B",
";. c #FFC23D",
":. c #FFC33E",
">. c #FFC33F",
",. c #FFC43C",
"<. c #FFC53C",
"1. c #FFC43D",
"2. c #FFC53D",
"3. c #FFC73C",
"4. c #FFC73D",
"5. c #FFC43E",
"6. c #FFC53E",
"7. c #FFC43F",
"8. c #FFC73F",
"9. c #FFC33C",
"0. c #FDC240",
"q. c #FFC640",
"w. c #FFC443",
"e. c #FFC742",
"r. c #FFC743",
"t. c #FCC346",
"y. c #FFC444",
"u. c #FEC644",
"i. c #FFC744",
"p. c #FFC546",
"a. c #FFC646",
"s. c #FFC746",
"d. c #FFC543",
"f. c #FFC840",
"g. c #FFC842",
"h. c #FFC942",
"j. c #FFC844",
"k. c #FFC944",
"l. c #FFC845",
"z. c #FFC945",
"x. c #FFCA45",
"c. c #FFC946",
"v. c #FFCA46",
"b. c #FFCA47",
"n. c #FFC844",
"m. c #FDC648",
"M. c #FDC649",
"N. c #FDC74C",
"B. c #FDC74D",
"V. c #FFCB48",
"C. c #FFCB49",
"Z. c #FEC94B",
"A. c #FFCB4B",
"S. c #FECA4F",
"D. c #FFCC4C",
"F. c #FFCC4D",
"G. c #FFCC4E",
"H. c #FFCD4F",
"J. c #FFCA4C",
"K. c #FFCD50",
"L. c #FFCD51",
"P. c #FFCE52",
"I. c #FFCE54",
"U. c #FFCE56",
"Y. c #FFCC53",
/* pixels */
"                              F n n v c k p 1 : ;                               ",
"                        F B n B F F G G G v l h p < ; ;                         ",
"                    B B B B B L B B F F F G n n c k p : ; ;                     ",
"                  B B E B E ` ` ` -.` E ) L F F n v v h 5 ; ;                   ",
"              B E E E ` 4.3.g.j.j.V.h.h.u.8.4.) L F v v l t ; ; ;               ",
"            B L E ` 3.g.D.D.j.m b M M ) 4.u.j.j.4.) B n v l t : ; ;             ",
"          B E ` 3.g.V.V.:.x s k n G G F n F B ` a.q.4.M n v l p > - X           ",
"        L E ` 4.j.D.N.b t s n E E D Z B B F n n n ;.a.;.L n l k q + + +         ",
"        E ` 3.j.P.M.f 3 k E E E R R R Z F F G G n n ) g.4.) n l k 7 + @         ",
"      L E 3.j.P.V.p 3 c X.` ` ` { { R R D F G F G n v E a.;.M v l p # @ @       ",
"    B L -.g.S.S.f 3 k E E ` X.` { { R R D D D F n l l l ) a.O.n l k 9 @ @ @     ",
"    L ` g.V.P.b 3 a E ` X.X.` X.{ K j c E D Z G G F F l v ;.t.) n l s > X X     ",
"  B L -.V.P.t.6 3 n X.X.` X.E D c i e e s g n Z G G G l l n t.O.n c j 1 & X X   ",
"  L E q.D.U.x 2 s E ` X.X.X.F i r e e 3 2 ; 0 G G G v v l l ;.q.M n k p > X X   ",
"  L ` j.P.S.6 3 n ` X.X.` ` j e e 6 e t t < 5 c v G n l v k n t.O.n k d > & X   ",
"B B 4.V.U.m 2 t B ` X.` X.B r e 5 0 e t g h h l l F n v l k l w.w.n l j 8 + + + ",
"Z L q.D.U.x < g E X.X.` ` F r e 5 0 e t h h k l v v G l l l k ) t.M v j 1 @ @ + ",
"B L g.D.I.p 2 k ` E E X.` B r r e t e s h h c c v v l G l k h Z a.M b j 6 # . . ",
"n E g.D.Y.6 2 c { E ` X.X.X.l r e e e t g h k c v v v v k k j G a.M n j p X X X ",
"B L q.D.B.6 2 v E E E X.` ` ` k e e e e 6 p c v c v v l l k j v a.M v j y > - X ",
"F L q.D.B.6 2 c E E E E ` ` ` E h t e e < : p c l v v l l j j v t.M b j y > % % ",
"n B q.D.B.6 2 c D E E E E E E { R c r y 6 ; : k v v l l k k i n t.M b i y - - % ",
"F B 4.V.Y.w < k D B D E D E E E R G e s s : ; g l l l l k j i n 0.M c j 6 % % % ",
"n n -.M.K.x 2 y F F B B D F F D Z n r s d < ; g v l l k j j j M 0.n k u 5 % & X ",
"n n ) q.P.m 2 6 v F F G G l r j n n y s s : ; h l l k j j i i 3.N n d u , X # . ",
"  n B 4.V.t.6 2 k G G G F j e r r j e e 3 ; 0 k k l k k j i l 3.M c j y # $ @   ",
"  n G ` a.S.f 2 y G F n G v i e r e e e 2 5 d l k l j j u u M ;.n k d 0 $ * O   ",
"  v v B 4.M.0.5 2 k l v l F l d e r e y y j j k j j j i u k N M b j u 7 * * *   ",
"    v n ) 4.V.z 2 t c v v l v l s t r a d j k j j j d u u M N n k u y # $ +     ",
"    l v n ) a.p.p < a l l l l l l a y d d j j j j j u r b O.n k j r , X X X     ",
"      v v n O.q.N w < d l j k l l k j d d j i i u u r c N n c h u t X . .       ",
"        l n n ) 4.O.p 2 d j l j j j j d u u u u r u c M M b j u r > @ @         ",
"        l l v n M 4.N z 3 6 u j j d j u u r r r d b M n c k u r , @ + +         ",
"          l k l n n N ;.m f 6 y u u u u u r d k M M n c j u r 1 + + +           ",
"            k k l v n n M N M b x h h k b n M M n b k u u r 1 + O $             ",
"              k k j k l n n n M M M M M n n b c k d u r y 8 O O O               ",
"                  k j j j k l l v c c l l k j d u u u e = $ O                   ",
"                    j j j j j j j j j d u i u u u e 2 ; % %                     ",
"                        d j u u u u u u u r r e 2 ; ; -                         ",
"                              u u u u y e 5 < ; -                               "
};
