/* XPM */
static char *_f65d20e50a54be4e576c896e36b7c76yF82RpQwOo2a35lQ[] = {
/* columns rows colors chars-per-pixel */
"30 57 115 2 ",
"   c #161613",
".  c #191714",
"X  c #171815",
"o  c #1A1916",
"O  c #1D1D19",
"+  c #211E1A",
"@  c #1F201D",
"#  c #23221D",
"$  c #29251F",
"%  c #262521",
"&  c #292721",
"*  c #2B2A24",
"=  c #2E2E29",
"-  c #312C25",
";  c #312F2A",
":  c #33322D",
">  c #363531",
",  c #3C3A35",
"<  c #3E3D38",
"1  c #4B362C",
"2  c #4E382E",
"3  c #403F3A",
"4  c #533D32",
"5  c #583F33",
"6  c #43423D",
"7  c #48453F",
"8  c #5C4337",
"9  c #5D4539",
"0  c #664C3E",
"q  c #734D3D",
"w  c #75503F",
"e  c #7E653B",
"r  c #494640",
"t  c #494944",
"y  c #604B40",
"u  c #695043",
"i  c #775141",
"p  c #7B5646",
"a  c #7D5949",
"s  c #86523F",
"d  c #865441",
"f  c #895642",
"g  c #835945",
"h  c #8D5A46",
"j  c #835C4B",
"k  c #8E5C48",
"l  c #915E4A",
"z  c #846441",
"x  c #8A6546",
"c  c #836B43",
"v  c #8F6449",
"b  c #8F6C4B",
"n  c #94614C",
"m  c #98654F",
"M  c #946C4D",
"N  c #986C4F",
"B  c #90774E",
"V  c #8E6552",
"C  c #966551",
"Z  c #996651",
"A  c #976953",
"S  c #9C6A55",
"D  c #9D6C56",
"F  c #9E6D57",
"G  c #9C6B58",
"H  c #9D6D59",
"J  c #9F6C58",
"K  c #9F6D58",
"L  c #9E6E5B",
"P  c #997454",
"I  c #987B54",
"U  c #9F705B",
"Y  c #A06C58",
"T  c #A06F59",
"R  c #A06F5A",
"E  c #A26F5B",
"W  c #A17259",
"Q  c #A0715D",
"!  c #A3725C",
"~  c #A3735E",
"^  c #A4735D",
"/  c #A4745F",
"(  c #A7785F",
")  c #A77761",
"_  c #9F865C",
"`  c #A88363",
"'  c #BC9674",
"]  c #B8917F",
"[  c #BBA177",
"{  c #C59C7B",
"}  c #AF9289",
"|  c #BA9583",
" . c #BB9583",
".. c #BC9582",
"X. c #BC9583",
"o. c #BE9886",
"O. c #BF9A87",
"+. c #B0938B",
"@. c #B39489",
"#. c #B4988E",
"$. c #C09B88",
"%. c #C19C89",
"&. c #D0AF9E",
"*. c #CBB0A5",
"=. c #D6B7A6",
"-. c #D7B8A7",
";. c #D8B9A7",
":. c #D8B9A8",
">. c #D8BAA8",
",. c #D9BAA9",
"<. c #D9BBA9",
"1. c #DABBA9",
"2. c #DBC196",
"3. c #DFC2B1",
"4. c #ECCEA3",
/* pixels */
"3. . ............... . .....@.+............. ....... ...] &.",
">.S S K F F F K F F F F F F F T F F F F F F F F F K F F n O.",
">.Q Q ) ) ) ) ) / ( ) ( ) ) ) ( ) ) ) ) / ) / ( ) ) ) ) F %.",
"1.Q / / ^ Q Q Q ^ ^ ^ Q Q Q ) Q Q ^ ^ Q ^ ^ ^ ^ Q Q / ( F %.",
";.U Q Q Q Q Q ^ Q Q / Q Q F F U F R Q Q / Q Q ^ Q Q F ) S %.",
"1.^ / F ^ ^ Q ^ W Q ^ ^ Q F U K F ^ ^ ^ ^ Q Q Q Q ) K / S %.",
"1.Q ^ ^ ^ ^ ^ ^ ^ ( Q Q Q F U U F Q Q Q ^ / / / ^ Q R ) S %.",
"1.T Q Q F Q ^ / / / ^ Q Q F F F S K Q ^ / / ^ / Q ^ F / S %.",
"1.U U U ^ F Q T Q U Q Y Q D F U S T U F ^ Q ^ Q F Q F ^ F O.",
"1.F U Q T Q Q ^ T ^ T W U S F F F U Q ^ F Q F Q ^ ^ R ^ S o.",
">.F Q T S S S F S S D S S S T T S S F D F S F F S S F Q S $.",
"1.F T Q K Q ^ Q Q Q ^ Q ^ T Q Q Q Q T Q U ^ Q W ^ F R Q S $.",
"1.K K U U ) Q / ^ ^ W / ^ Q Q Q Q ^ Q / / / Q W / / Q Q m O.",
">.K K G a a a a p p a a j V Q W N a a a p a p a a a C Q Z O.",
">.K K j = * $ $ # $ : 7 3 8 Q Q j - * $ $ # $ : r < 0 Q Z O.",
">.K K j $ & * $ O ; 6 6 $ 8 U U a $ $ * # O : 6 6 & 9 K Z o.",
">.F R j - = ; % & 6 < : = y R E a * * $ % * 6 < ; ; u Q m o.",
">.S F j - & O ; > , % % , y R E a * $ # : > , $ % < u R m O.",
">.S K j $ O = , < * % : % 4 R E a # # - 3 , * # : % 9 R m o.",
">.S K g # * 6 3 # % , ; O 4 Y R p # = 6 6 @ % < = O 8 U C o.",
">.A Y a , t , $ % , = & % 4 J R p , t > % % , & % % 8 R m o.",
">.S S j 6 > % = > : # # % 4 J R g 6 > % ; : : # $ # 8 S n o.",
"=.S S j 6 % # : : # O O # 4 J Y j < # # > : # O + # 9 K n o.",
";.S S j & % : & # % O @ + 4 S Y p $ % > % % # O O # 8 F n o.",
"=.S Z j * : = @ O % O O % 4 S J i * > % % O % O @ # 8 R l o.",
">.A Z a , = O O O O O O = 4 S G p , * O O O O O # = 9 S n X.",
"=.C C j % . O +   O @ % O 2 G G p % X O O   O O % @ 8 S n o.",
">.S C g O   . . o O % O X 1 G G i o   X X O O O @   4 S n X.",
">.C C p + O   o   % # o O 2 S Z i # O   O   % # o o 5 S l o.",
">.C C d + O o o O O o O . 1 S S i O O O   O O O + o 5 S l X.",
">.Z C p O   o @ O     .   1 S S i     o % .   . o   4 Z n X.",
",.C C p + o % %   . . o . 1 C C i O o % #   . . o o 4 S k  .",
",.C n l q q i q q q q q q g n m s q q w q q q q q q h m v  .",
"-.C n C Z Z Y l Z Z m N x v N P ` ' { T N m m m m m S Q x  .",
">.n n C l Z C C Z m m N e c B _ [ 2.4.( m m m m m m N I z  .",
">.C n C C C C C C C Z m z z b P ` { { Q m m m m m m n x g  .",
":.n l C l n l n n n n n n l n n n n l l n m n n n n n m k ..",
":.n n C k k k k h l k k h h l l l n l l l s l l h h k m h ..",
":.n l l k n l n n l n l l h l k l s n n n l n l n n h n h  .",
":.V l l k l n n n n n l l h l l n s l n n n n n h n h m h  .",
"-.n l l h l n n n n n n l f n k h l l n n n n n h m h n h  .",
"-.n l n h l n n n n n l l f v k h h l n m n n n v k f n f  .",
";.n l l h l n n n n n k n f h k h l l l l n l n h v h n h  .",
"=.n l n s l l n n n n k l f k k s h l n n n n n k l h n f  .",
"=.n l h l l l n l n n l h f k k h h l l n n l n h l h l f  .",
"-.l h n s l l l n l n h k f k h s h h l l l n n l h h l f  .",
"-.k k h l l l l l l l h k f h h h h l l l l l l h h h l f  .",
"-.n h k s h l l l n n k k s h f s h h l l n l l h h h l f ] ",
"-.l k k f h k l l l l h h s f h f f h k l l l l k k f n s  .",
">.h h k f k k k k h l h h s h h f f h h h l l h f f f k f ] ",
"-.k h h f k h h k f h h h s h f f f k k h h h h k k f k f  .",
"-.k h h s f f s f f f f f s f h f s f f s h s s f s f k s ] ",
"-.k f l h h h h h h h h h h k k h h h h h h h h h h h k s  .",
"=.k h h k h k h f k h h h h f k h h h l l h h h k k h k s  .",
"=.k f h k h h h k k h h h h k k h k h h h h k h h h h h s ] ",
"-.k f k k k l h k k l k k l k k k k k k k k k k k k h h s  .",
">.#.#.+.+.+.+.+.+.+.+.#.+.+.+.#.+.@.@.@.@.@.@.+.+.+.+.@.} *."
};
