/* XPM */
static char *_63769bbd554494dcc964692a49d937655U4XpuyLKqkuKLP[] = {
/* columns rows colors chars-per-pixel */
"50 50 171 2 ",
"   c None",
".  c #040404",
"X  c #0B0B0C",
"o  c #131409",
"O  c #1C1D0F",
"+  c #0F0F10",
"@  c #05191D",
"#  c #041518",
"$  c #131314",
"%  c #1E1E15",
"&  c #171718",
"*  c #1C1C1C",
"=  c #242412",
"-  c #272814",
";  c #2B2C16",
":  c #24241B",
">  c #222818",
",  c #2C2C1C",
"<  c #2F311B",
"1  c #33341A",
"2  c #37391B",
"3  c #3C3D1E",
"4  c #0A1E23",
"5  c #1F1F20",
"6  c #082026",
"7  c #06292E",
"8  c #09262A",
"9  c #1D2423",
"0  c #1A282A",
"q  c #072E33",
"w  c #09353B",
"e  c #0B383F",
"r  c #163337",
"t  c #222223",
"y  c #2E2E25",
"u  c #272728",
"i  c #2C2C2D",
"p  c #273828",
"a  c #323324",
"s  c #333B24",
"d  c #3C3C21",
"f  c #273B31",
"g  c #3E401F",
"h  c #3C4124",
"j  c #36462E",
"k  c #21433B",
"l  c #434422",
"z  c #474824",
"x  c #4A4C26",
"c  c #474928",
"v  c #4C4D2B",
"b  c #40472A",
"n  c #4E5027",
"m  c #4F5029",
"M  c #53552A",
"N  c #57592C",
"B  c #5A5C2D",
"V  c #515327",
"C  c #4C4D34",
"Z  c #46473A",
"A  c #565931",
"S  c #5A5C33",
"D  c #5B5C3D",
"F  c #555730",
"G  c #5E602E",
"H  c #5F6131",
"J  c #636532",
"K  c #666834",
"L  c #6B6D36",
"P  c #63653C",
"I  c #68693A",
"U  c #6F7137",
"Y  c #6F7138",
"T  c #717339",
"R  c #0C3C43",
"E  c #0F3745",
"W  c #103946",
"Q  c #0D4147",
"!  c #0E454E",
"~  c #11454E",
"^  c #0F4B53",
"/  c #0F4F58",
"(  c #134353",
")  c #114B53",
"_  c #144A5A",
"`  c #12535C",
"'  c #264744",
"]  c #164E60",
"[  c #18566A",
"{  c #175669",
"}  c #1A5D73",
"|  c #1E667B",
" . c #2D6063",
".. c #22697B",
"X. c #4E4F44",
"o. c #49494A",
"O. c #585844",
"+. c #585857",
"@. c #696B4B",
"#. c #696A47",
"$. c #6B6C5A",
"%. c #727353",
"&. c #7A7B5D",
"*. c #6A6A6C",
"=. c #767765",
"-. c #7D7E62",
";. c #72726C",
":. c #7B7C6D",
">. c gray47",
",. c #7F806E",
"<. c #7F8072",
"1. c #8C8C7A",
"2. c #8F907F",
"3. c #1E6B83",
"4. c #1F6E88",
"5. c #1F738B",
"6. c #20728D",
"7. c #217691",
"8. c #227A96",
"9. c #237E9B",
"0. c #24809E",
"q. c #2585A4",
"w. c #2688A7",
"e. c #278BAB",
"r. c #288EAF",
"t. c #2D91AD",
"y. c #288FB1",
"u. c #2993B4",
"i. c #2A96B9",
"p. c #2B9ABE",
"a. c #2C9DC1",
"s. c #2DA1C6",
"d. c #2EA6CC",
"f. c #2FA8CF",
"g. c #2FAAD2",
"h. c #30ADD5",
"j. c #31AFD8",
"k. c #32B3DD",
"l. c #34BAE5",
"z. c #34BDE9",
"x. c #33B7E2",
"c. c #36C2EF",
"v. c #37C6F3",
"b. c #37C8F6",
"n. c #38C8F7",
"m. c #38CAF9",
"M. c #888987",
"N. c #97978B",
"B. c #969696",
"V. c #9E9F94",
"C. c #9C9C9B",
"Z. c #A3A49D",
"A. c #A7A7A0",
"S. c #AAAAA4",
"D. c #BFBFBE",
"F. c #B9B9B7",
"G. c #C1C2BE",
"H. c #C4C4C4",
"J. c #C8C8C7",
"K. c #CCCCCC",
"L. c #D4D4D3",
"P. c gainsboro",
"I. c #E4E4E4",
"U. c #EAEAEB",
"Y. c #EDEDEE",
"T. c #F3F3F4",
"R. c #F7F7F8",
"E. c white",
"W. c #FEFEFE",
"Q. c #FCFCFD",
"!. c #F9F9FA",
/* pixels */
"                                                X $ * & & & $ +                                     ",
"                                                  X + * t t t 5 * * $   .                           ",
"                                            & * * * * * 5 5 i i i t t * $ $ &                       ",
"                                        . X & * t u u i i i i i i i i i t * t * X X $               ",
"                                      X * t i i i i i i i i i i i i i i i i u t * * 5 $             ",
"                                    & t i i i i i i i i i i i i i i i i i i i i t * t * X           ",
"                                  $ * * i i i i i i i u i i i i i i i i i i i i i t t t *           ",
"                                  $ X * i * : v d t a , i u y d t i u i i i i i i i t t *           ",
"                                      $   O B T c , L v % 2 B B : y ; t i i i i i i i t t X         ",
"                                        2 l N B B J T B X.N.V.=.y V l * u i i i i i i i t * &       ",
"                                    x J L Y L G x B #.S.T.W.W.T.K.1.N v $ * u i i i i i i u t * $   ",
"                                  v Y T T T T T L d Z.!.W.W.W.W.W.Y.$.N 1 % t i i i i i i i u 5 * $ ",
"                                  J Y L L Y U T T S D.>.L.W.W.W.W.W.S.B K , t i i i i i i 5 * * + $ ",
"                                ; @.&.-.-.&.%.#.I S J.J.Y.W.W.W.W.W.F.N J x , i i i i i i u $ & X . ",
"                                  C.R.!.R.T.P.;.C.X.L.W.W.W.W.W.W.W.N.B T T a i i i i i i & * .     ",
"                                3 D A.U.Q.W.U.M.;.x :.T.W.W.W.W.W.J.D L T L a i i a a i t   X       ",
"                              x L U J @.:.:.$.C N K l =.G.I.U.P.Z.O.K T T U z N J L J v :           ",
"                            x U T U J M x 3 V B T T B x N #.@.P J L T T U U Y L H B G K B           ",
"                          x T T Y T Y J ; l z = L T T J M B J L T L Y T T T L Y L K J L K -         ",
"                        l Y T U T T Y J x B ; - S T T T T L K L L J Y T T M 2 B J L J B 3           ",
"                        z M S I I J K L L K K L L Y T T T T K Y T L Y T J                           ",
"                            M.L.D.X.Z C.V.1.C v %.%.F N B J J L Y J Y Y l                           ",
"                            B.K.D.o.;.P.P.J.  *.U.P.+.  1 B x m U T T L -                           ",
"                                                C.B.      g M l m T Y M                             ",
"                                                            2 K M M z s @                           ",
"            3 ;                                               s N b  .t.3.                          ",
"          ; J m       h 3 ' p.h.h.k.k.k.k.x.k.x.x.k.k.j.h.h.h.a.u.4.e.k.9.                          ",
"    1 d 2 - z x l B K U T v ..v.m.n.n.n.n.n.n.v.v.v.v.z.z.x.j.d.a.3.a.s.w.                          ",
"  2 L B z n J L Y T T T V     9.h.h.g.h.k.k.h.h.d.d.s.s.a.i.y.q.8.3.s.p.u.W                         ",
"o z M - o V J x N Y Y m       4 [ w.u.u.p.p.p.p.p.i.r.q.9.8.0.r.a.g.a.a.i._                         ",
"        - J g   3 Y N       = ' | 9.a.a.p.i.r.9.6.4.{ 9.h.z.v.v.v.k.p.p.p.[                         ",
"        = J x   ; L v     V I J f E 8.7.3.3.6.9.e.i.3.k.m.v.v.x.z.d.p.p.p.3.                        ",
"          3 2 . o 3 M 1 z Y T M     @ ( q.i.p.a.i.3.} v.v.v.v.d.k.a.a.p.a.8.                        ",
"              1 2 3 z c z L L 2         } w.i.9.]   9.m.v.v.v.i.d.a.p.p.a.w.                        ",
"            G B 3 V L V M T B               ]       s.v.v.v.z.q.a.p.p.p.p.u.(                       ",
"          1 I 3   x B O - B J -                   ( u.4.z.n.f.6.p.p.p.a.p.p.[                       ",
"            <     1 J l   2 M n 2                 6 ! W w.5.` ~ 8.i.7.3.w.p.4.                      ",
"                    l z o       ;                   w ! ^ ) ` ` ( _ ! ^ ^ [ }                       ",
"                                                    @ R / ` ` ` ` / ` ` ^ w #                       ",
"                                                        7 R ` ` ` ! R e 7                           ",
"                                                          e ` ` ! q @                               ",
"                                                          ~ ` ` ! ^                                 ",
"                                                          / ` ! ! ` Q                               ",
"                                                          k ) Q ^ ) Q 6                             ",
"                                                          j ~ w e 7 p -                             ",
"                                                        Q ) ) q     z M                             ",
"                                            5 t t t     ~ ` ` e       I N                           ",
"                                            5 t t 5 9 : 0 r ~ R h B B B M l                         ",
"                                            & & * * * * 5 t 9 9 m N l                               ",
"                                                        $ y & &                                     "
};
