/* XPM */
static char *result[] = {
/* columns rows colors chars-per-pixel */
"50 50 10 1 ",
"  c #271E0E",
". c #002D16",
"X c #003319",
"o c #0C3D25",
"O c #006430",
"+ c #007137",
"@ c #56411F",
"# c #00803E",
"$ c #009146",
"% c None",
/* pixels */
"%%%%%%%%%%%%oo%%%%XXX%%%%%%%%%%XXX%%%%%%%%%%%%%%%%",
"%%%%%%%%%%%%oo%%%%XXX%%%%%%%%%%XXX%%%%%%%%%%%%%%%%",
"%%%%%%%%%%%%oo%%%%XXX%%%%%%%%%%XXX%%%%%%%%%%%%%%%%",
"%%%%%%oooXXXXXXXXX$$$XXXXXXXXXX$$$XXX%%%%%%%%%%%%%",
"%%%%%%oooXXXXXXXXX$$$XXXXXXXXXX$$$XXX%%%%%%%%%%%%%",
"%%%%%%%%%XXXXXXXXX$$$XXXXXXXXXX$$$XXX%%%%%%%%%%%%%",
"%%%%%XXXX###$$$$$$######$$$$###$$$###XXX%%%%%%%%%%",
"%%%%%XXXX###$$$$$$######$$$$###$$$###XXX%%%%%%%%%%",
"%%%%%XXXX###$$$$$$######$$$$###$$$###XXX%%%%ooo%%%",
"%%%%%XXXX$$$######$$$$$$$$$$############XXXXooo%%%",
"%%%%%XXXX$$$######$$$$$$$$$$############XXXXooo%%%",
"%%%%%XXXX$$$######$$$$$$$$$$############XXXX%%%%%%",
"%%XXX##########$$$$$$$$$####$$$$$$######$$$$XXX%%%",
"%%XXX##########$$$$$$$$$####$$$$$$######$$$$XXX%%%",
"%%XXX##########$$$$$$$$$####$$$$$$######$$$$XXX%%%",
"%%XXX##########$$$$$$$$$####$$$$$$######$$$$XXX%%%",
"%%XXX$$$$###$$$+++$$$+++####$$$######$$$####XXX%%%",
"%%XXX$$$$###$$$+++$$$+++####$$$######$$$####XXX%%%",
"%%XXX$$$$###$$$+++$$$+++####$$$######$$$####XXX%%%",
"%%XXX#############+++###$$$$+++###$$$$$$####XXX%%%",
"%%XXX#############+++###$$$$+++###$$$$$$####XXX%%%",
"%%XXX#############+++###$$$$+++###$$$$$$####XXX%%%",
"%%XXX$$$$#########$$$#######$$$################%%%",
"%%XXX$$$$#########$$$#######$$$################%%%",
"%%XXX$$$$#########$$$#######$$$################%%%",
"%%XXX####+++###$$$+++##########+++###$$$####XXX%%%",
"%%XXX####+++###$$$+++##########+++###$$$####XXX%%%",
"ooXXX####+++###$$$+++##########+++###$$$####XXX%%%",
"oo$$$##########+++######++++######+++$$$####XXX%%%",
"oo$$$##########+++######++++######+++$$$####XXX%%%",
"oo$$$##########+++######++++######+++$$$####XXX%%%",
"%%XXX####$$$###++++++$$$OOOO+++######++++++++++ooo",
"%%XXX####$$$###++++++$$$OOOO+++######++++++++++ooo",
"%%XXX####$$$###++++++$$$OOOO+++######++++++++++ooo",
"%%XXX++++++++++OOO###+++++++###$$$###+++++++XXX%%%",
"%%XXX++++++++++OOO###+++++++###$$$###+++++++XXX%%%",
"%%XXX++++++++++OOO###+++++++###$$$###+++++++XXX%%%",
"%%XXXOOOO###OOO###+++OOOOOOO###OOO+++###OOOO...%%%",
"%%XXXOOOO###OOO###+++OOOOOOO###OOO+++###OOOO...%%%",
"%%XXXOOOO###OOO###+++OOOOOOO###OOO+++###OOOO...%%%",
"%%XXXOOOO###OOO###+++OOOOOOO###OOO+++###OOOO...%%%",
"%%%%%XXXXOOO++++++OOO@@@@@@@OOOOOOOOOOOOXXXX%%%%%%",
"%%%%%XXXXOOO++++++OOO@@@@@@@OOOOOOOOOOOOXXXX%%%%%%",
"%%%%%XXXXOOO++++++OOO@@@@@@@OOOOOOOOOOOOXXXX%%%%%%",
"%%%%%%%%%XXXXXXXXXXXX       XXXXXXXXXXXX%%%%%%%%%%",
"%%%%%%%%%XXXXXXXXXXXX       XXXXXXXXXXXX%%%%%%%%%%",
"%%%%%%%%%XXXXXXXXXXXX       XXXXXXXXXXXX%%%%%%%%%%",
"%%%%%%%%%%%%%%%%%%%%%%%%%%%%%%%%%%%%%%%%%%%%%%%%%%",
"%%%%%%%%%%%%%%%%%%%%%%%%%%%%%%%%%%%%%%%%%%%%%%%%%%",
"%%%%%%%%%%%%%%%%%%%%%%%%%%%%%%%%%%%%%%%%%%%%%%%%%%"
};
