/* XPM */
static char *f7c796e3653f4de89f0d17dc1533b110SjMLeVgNyHCzZ9SV[] = {
/* columns rows colors chars-per-pixel */
"50 46 205 2 ",
"   c None",
".  c #615651",
"X  c #605652",
"o  c #615652",
"O  c #635853",
"+  c #685C56",
"@  c #6E635D",
"#  c #75675F",
"$  c #736660",
"%  c #736761",
"&  c #746760",
"*  c #756760",
"=  c #746761",
"-  c #736861",
";  c #746861",
":  c #756861",
">  c #766861",
",  c #746B65",
"<  c #756B65",
"1  c #7A6861",
"2  c #786A61",
"3  c #7D6C60",
"4  c #7C6C61",
"5  c #7D6D61",
"6  c #7F6E60",
"7  c #74716D",
"8  c #74726E",
"9  c #737C7A",
"0  c #87705B",
"q  c #806E61",
"w  c #826F61",
"e  c #8C6862",
"r  c #8D6963",
"t  c #867260",
"y  c #8D7866",
"u  c #907761",
"i  c #917861",
"p  c #9B7D60",
"a  c #9D7F61",
"s  c #937E6B",
"d  c #957F6C",
"f  c #B36763",
"g  c #BB6662",
"h  c #C86764",
"j  c #C96764",
"k  c #DA6765",
"l  c #F36565",
"z  c #FF6666",
"x  c #EB7578",
"c  c #A08060",
"v  c #AA8660",
"b  c #AE8861",
"n  c #AE8A63",
"m  c #B08A60",
"M  c #B18B63",
"N  c #B68D61",
"B  c #B78E60",
"V  c #B69066",
"C  c #BC9D79",
"Z  c #C69660",
"A  c #C89963",
"S  c #C59A6A",
"D  c #CBA06E",
"F  c #DFA664",
"G  c #DFA866",
"H  c #DFAA6C",
"J  c #E3A760",
"K  c #E8B16F",
"L  c #F2B164",
"P  c #FAB360",
"I  c #FCB560",
"U  c #FEB660",
"Y  c #FFB760",
"T  c #F7B96D",
"R  c #EFBA78",
"E  c #FFBE70",
"W  c #F9BD76",
"Q  c #F9BE76",
"!  c #FFC177",
"~  c #FEC277",
"^  c #FFC277",
"/  c #FEC178",
"(  c #FFC378",
")  c #FEC379",
"_  c #F8C17D",
"`  c #FEC57D",
"'  c #70969B",
"]  c #6E99A0",
"[  c #6EA5AE",
"{  c #6EA9B3",
"}  c #6CA9B5",
"|  c #6CB5C2",
" . c #6CB6C4",
".. c #3BC2DC",
"X. c #3EC4DF",
"o. c #00CBFF",
"O. c #00CDFF",
"+. c #30C2E0",
"@. c #33C3E1",
"#. c #35C3E1",
"$. c #6BC4D6",
"%. c #48C8E2",
"&. c #5BCFE7",
"*. c #5ECFE7",
"=. c #47D6F5",
"-. c #4AD7F5",
";. c #5BDFFF",
":. c #73CCE0",
">. c #63D0E7",
",. c #64D0E6",
"<. c #6ED1E2",
"1. c #69D1E5",
"2. c #68D2E7",
"3. c #69D2E7",
"4. c #6ED3E5",
"5. c #65D2E8",
"6. c #66D2E8",
"7. c #67D3E8",
"8. c #68D3E8",
"9. c #69D3E8",
"0. c #68D4E9",
"q. c #69D4E9",
"w. c #73D9E8",
"e. c #76D9E8",
"r. c #63E1FF",
"t. c #898989",
"y. c #959594",
"u. c #82A4AE",
"i. c gray64",
"p. c #A7A7A7",
"a. c #AEAEAD",
"s. c gray69",
"d. c #B9B9B9",
"f. c #C0888E",
"g. c #E2B783",
"h. c #83C7BF",
"j. c #8FC7BB",
"k. c #ABC5AA",
"l. c #DEC590",
"z. c #F8C382",
"x. c #FFC984",
"c. c #FEC986",
"v. c #F6C689",
"b. c #F9C98F",
"n. c #FFCD8C",
"m. c #FFCD8D",
"M. c #FFCE8D",
"N. c #FFCE8E",
"B. c #FECE8F",
"V. c #FFCE8F",
"C. c #F6CD93",
"Z. c #FCCE91",
"A. c #FECE90",
"S. c #FFCE90",
"D. c #FFCF90",
"F. c #FFCF92",
"G. c #FFD194",
"H. c #FFD196",
"J. c #FFD298",
"K. c #FFD399",
"L. c #FFD39B",
"P. c #FFD49A",
"I. c #FED39C",
"U. c #FFD49C",
"Y. c #FDD49E",
"T. c #F5D1A5",
"R. c #F9D5A1",
"E. c #FFD5A0",
"W. c #FFD6A1",
"Q. c #FFD6A2",
"!. c #FFD7A4",
"~. c #FED7A5",
"^. c #FFDAAA",
"/. c #FFDDB1",
"(. c #FEE0B9",
"). c #FFE2BC",
"_. c #85BFD0",
"`. c #83C9C4",
"'. c #8FCBC3",
"]. c #91CCC5",
"[. c #93CDC5",
"{. c #8CE2F0",
"}. c #8EE2F1",
"|. c #84E4FB",
" X c #88E6FC",
".X c #98E4F0",
"XX c #B4E3E2",
"oX c #B6E4E2",
"OX c #B8E4E3",
"+X c #B2E6E9",
"@X c #C3C3C3",
"#X c #CECDCD",
"$X c LightGray",
"%X c #D9D8D8",
"&X c #C6E5DE",
"*X c #DBE8DC",
"=X c #E6E8D5",
"-X c #E9E4DD",
";X c #C4EAEB",
":X c #D4EBE4",
">X c gray92",
",X c #ECEBEB",
"<X c gray93",
"1X c #F4F3F3",
"2X c #FFFBF4",
/* pixels */
"                                                                                                    ",
"                                                                                                    ",
"                              > - >                                                                 ",
"                            > > > > >                                                               ",
"                          - - > > - >                                                               ",
"                          > > > > > >                                                               ",
"                z z z     > > - - - >                                                               ",
"              z z z z     > > - > > >                                                               ",
"      3.7.`.x l k j j f   > > > > - >                                                               ",
"    3.8.:.f.g r 1 = = = > - - > > > > - > > >                                                       ",
"  3.3.8.u.r - - = 1 = = > > - > - > > > > > > -                                                     ",
"  3.8.| 7 $ > - = * < < - > > > - > - > > - > >                                                     ",
"  8.$.9 # > > > = = * * * * > - > > > - > > -                                                       ",
"  3.' * > > - > < = < * * < > > > - > > >                                                           ",
"  { 7 * - - > > * * < * * > > > - > - >                                                             ",
"    > > > > > - * * * * * * > > > > - > >                                                           ",
"  > > > > - - > > > - > > > > - > > > > -                                                           ",
"    - - > > > 4 v 5 - > > - i c - - > - > >                                                         ",
"    > > - > $ i L A w $ - - y K N 5 % > >                                                           ",
"    - - > - > S c.` F c 5 $ s v.) G n 4 >                                                           ",
"    b w - 4 M z.Q.(.Q.Q G D g.^.(.Q.c.                                                              ",
"    I Z > p T G.*Xr..XY.V.V.Y.;X;.XXH.                                                              ",
"    I J 5 0 R G.oXO.=.R.V.V.Y.{.o.w.J.                                                              ",
"    I I B m _ H.OXO.-.R.V.V.P.}.o.e.J.                                                              ",
"      I I I ) G.=X X+XY.V.V.H.:X|.&X                                                                ",
"            E n.J.^.Q.Z.Z.V.V.Q./.                                                                  ",
"                `.[.].].[.j.                                                                        ",
"              @.#.*.,.6.*.@.                                                                        ",
"            h...%.8.3.3.,.X.                                                                        ",
"            C.  ,.3.3.3.<.k.                                                                        ",
"            Z.  3.0.0.0.4.l.                                                                        ",
"          V.Z.  ] [ |  .}   ! )                                                                     ",
"          Z.V.    > > , @   ) )                                                                     ",
"            Z.  * > * + O O                                                                         ",
"                * $ > . . .                                                                         ",
"                C d     0 V                                                                         ",
"              V.V.      W !                                                                         ",
"              ).~.        C.T.                                                                      ",
"              1X2X        -X%X                                                                      ",
"            d.p.,X        #Xt.i.                                                                    ",
"          >X<X@Xa.        y.s.$X                                                                    ",
"                                                                                                    ",
"                                                                                                    ",
"                                                                                                    ",
"                                                                                                    ",
"                                                                                                    "
};
