/* XPM */
static char *result[] = {
/* columns rows colors chars-per-pixel */
"50 50 20 1 ",
"  c #23150B",
". c #2A190D",
"X c #332B11",
"o c #3E3415",
"O c #442A0C",
"+ c #52330F",
"@ c #413529",
"# c #683F20",
"$ c #3A7124",
"% c #4E4031",
"& c #B26A1F",
"* c #865129",
"= c #826C2B",
"- c #9C8334",
"; c #CE8025",
": c #EAA330",
"> c #A78665",
", c #C4A17A",
"< c #E3C59C",
"1 c None",
/* pixels */
"11111111111111111................11111111111111111",
"11111111111111111................11111111111111111",
"11111111111111111................11111111111111111",
"1111111111111....###**********###....1111111111111",
"1111111111111....###**********###....1111111111111",
"1111111111111....###**********###....1111111111111",
"1111111111111....###**********###....1111111111111",
"1111111111111....################....1111111111111",
"1111111111111....################....1111111111111",
"1111111111111....################....1111111111111",
"1111111111111....###>>>>>>>>>>###....1111111111111",
"1111111111111....###>>>>>>>>>>###....1111111111111",
"1111111111111....###>>>>>>>>>>###....1111111111111",
"1111111111111%%%%,,,$$$,,,,$$$,,,%%%%1111111111111",
"1111111111111%%%%,,,$$$,,,,$$$,,,%%%%1111111111111",
"1111111111111%%%%,,,$$$,,,,$$$,,,%%%%1111111111111",
"1111111111111%%%%,,,$$$,,,,$$$,,,%%%%1111111111111",
"1111111++++++%%%%<<<,,,<<<<,,,<<<%%%%++++++1111111",
"1111111++++++%%%%<<<,,,<<<<,,,<<<%%%%++++++1111111",
"1111111++++++%%%%<<<,,,<<<<,,,<<<%%%%++++++1111111",
"111++++::::::&&&&@@@,,,>>>>,,,@@@&&&&::::::++++111",
"111++++::::::&&&&@@@,,,>>>>,,,@@@&&&&::::::++++111",
"111++++::::::&&&&@@@,,,>>>>,,,@@@&&&&::::::++++111",
"+++;;;;;;;;;;;;;;&&&@@@@@@@@@@&&&;;;;;;;;;;;;;;+++",
"+++;;;;;;;;;;;;;;&&&@@@@@@@@@@&&&;;;;;;;;;;;;;;+++",
"+++;;;;;;;;;;;;;;&&&@@@@@@@@@@&&&;;;;;;;;;;;;;;+++",
"+++;;;;;;;;;;;;;;&&&@@@@@@@@@@&&&;;;;;;;;;;;;;;+++",
"%%%;;;;;;;&&&;;;;;;;&&&OOOO&&&;;;;;;;&&&;;;;;;;%%%",
"%%%;;;;;;;&&&;;;;;;;&&&OOOO&&&;;;;;;;&&&;;;;;;;%%%",
"%%%;;;;;;;&&&;;;;;;;&&&OOOO&&&;;;;;;;&&&;;;;;;;%%%",
"%%%;;;;&&&@@@&&&&;;;;;;++++;;;;;;&&&&@@@&&&;;;;%%%",
"%%%;;;;&&&@@@&&&&;;;;;;++++;;;;;;&&&&@@@&&&;;;;%%%",
"%%%;;;;&&&@@@&&&&;;;;;;++++;;;;;;&&&&@@@&&&;;;;%%%",
"%%%,,,,>>>@@@&&&&;;;::::::::::;;;&&&&@@@>>>,,,,%%%",
"%%%,,,,>>>@@@&&&&;;;::::::::::;;;&&&&@@@>>>,,,,%%%",
"%%%,,,,>>>@@@&&&&;;;::::::::::;;;&&&&@@@>>>,,,,%%%",
"%%%,,,,>>>@@@&&&&;;;::::::::::;;;&&&&@@@>>>,,,,%%%",
"111%%%%>>>@@@&&&&;;;::::::::::;;;&&&&@@@>>>%%%%111",
"111%%%%>>>@@@&&&&;;;::::::::::;;;&&&&@@@>>>%%%%111",
"111%%%%>>>@@@&&&&;;;::::::::::;;;&&&&@@@>>>%%%%111",
"1111111%%%@@@====------==============@@@%%%1111111",
"1111111%%%@@@====------==============@@@%%%1111111",
"1111111%%%@@@====------==============@@@%%%1111111",
"1111111111ooo==========XXXX==========ooo1111111111",
"1111111111ooo==========XXXX==========ooo1111111111",
"1111111111ooo==========XXXX==========ooo1111111111",
"1111111111ooo==========XXXX==========ooo1111111111",
"1111111111111          ....          1111111111111",
"1111111111111          ....          1111111111111",
"1111111111111          ....          1111111111111"
};
