/* XPM */
static char *_4c451d7c15d41c9d545fbbd4d72db742XoBg5542B5HU4gT[] = {
/* columns rows colors chars-per-pixel */
"50 50 94 2 ",
"   c None",
".  c #CC4D37",
"X  c #CC4E37",
"o  c #CD4E37",
"O  c #CD4E38",
"+  c #CD4F38",
"@  c #CD5039",
"#  c #CE5039",
"$  c #CE5139",
"%  c #CE523A",
"&  c #CE533A",
"*  c #DB6A31",
"=  c #DB6A32",
"-  c #DC6B32",
";  c #DC6C33",
":  c #DC6D34",
">  c #DD6D34",
",  c #DD6D35",
"<  c #DD6F35",
"1  c #DD6F36",
"2  c #DF763C",
"3  c #D56546",
"4  c #DA734F",
"5  c #DB7551",
"6  c #DE7E56",
"7  c #DF7E56",
"8  c #E27D42",
"9  c #EC902E",
"0  c #EC902F",
"q  c #EC9130",
"w  c #EC9131",
"e  c #EC9231",
"r  c #EC9232",
"t  c #EC9332",
"y  c #EC9233",
"u  c #EC9333",
"i  c #EE9739",
"p  c #EF9B3F",
"a  c #E6894D",
"s  c #E6894E",
"d  c #EF9B40",
"f  c #E89053",
"g  c #E89153",
"h  c #E89154",
"j  c #E99255",
"k  c #F1A249",
"l  c #F1A34B",
"z  c #F2A751",
"x  c #F2A853",
"c  c #E69062",
"v  c #E79364",
"b  c #E79464",
"n  c #E89766",
"m  c #EEA062",
"M  c #EEA162",
"N  c #EEA163",
"B  c #EFA666",
"V  c #F2AE6E",
"C  c #F5B160",
"Z  c #F5B161",
"A  c #F5B261",
"S  c #F5B363",
"D  c #F7B96D",
"F  c #EFAA72",
"G  c #EFAB73",
"H  c #F0AB73",
"J  c #F0AD74",
"K  c #F3B271",
"L  c #F4B271",
"P  c #F4B272",
"I  c #F7BB70",
"U  c #F7BC70",
"Y  c #F8BC70",
"T  c #F8BC71",
"R  c #F8BD71",
"E  c #F8BD72",
"W  c #F3B579",
"Q  c #F7BC7A",
"!  c #F6BC7E",
"~  c #F9C178",
"^  c #F9C279",
"/  c #FAC47D",
"(  c #F8C181",
")  c #F8C281",
"_  c #FBC780",
"`  c #FBC985",
"'  c #FCCB87",
"]  c #FCCC87",
"[  c #FCCC88",
"{  c #FCCD88",
"}  c #FCCC89",
"|  c #FCCD89",
" . c #FCCE89",
".. c #FDCE89",
/* pixels */
"$ + + + + + + + + + + + + + + + + + + + + + + + + + + + + + + + +             e e e 0 e e 0 e 0 e 0 ",
"+ + + + + + + + + + + + + + + + + + + + + + + + + + + + + + + + . 3           e e 0 e 0 0 e 0 e 0 e ",
"+ + + + + + + + + + + + + + + + + + + + + + + + + + + + + + + + . 6 } } } } D u 0 e 0 e e 0 e 0 e 0 ",
"+ + + + + + + + + + + + + + + + + + + + + + + + + + + + + + + + . 6 } } } } E u e 0 e 0 0 e 0 e 0 e ",
"+ + + + + + + + + + + + + @ O O + + + + + + + + + + + + + + + + . 6 } } ] } E u 0 e 0 e 0 e e 0 e 0 ",
"+ + + + + + + + + + + + + O O O + + + + + + + + + + + + + + + + . 6 } } } } E t e 0 e 0 e 0 9 e 0 e ",
"+ + + + + + + + + + + + + + . O + + + + + + + + + + + + + + + + . s ] } ] } U t 0 e 0 e 0 e 0 e e 0 ",
"+ + . . . . . . . . . . + + . . . . . . . . . . . . . . . . . . + c } ] } } ^ i 9 9 9 9 9 9 9 9 0 e ",
"  3 7 7 7 7 7 7 7 7 7 7 s 6 6 6 7 7 7 7 6 6 6 s 6 6 7 7 7 7 7 7 c ) ] } ] } ] D x x z x z x x l d   ",
"    } } ] } } ] } ] ] } ] } } } } ' } ' } } } ] } } ' } [ [ [ [  .} } ] } ] ]  .] ] ] } ] } } {     ",
"    ] } } ] } ] } ] } ] } ] } ] ' } ' } } } ] } } ' } ' [ [ [ [ } ] } ] ] } ] } ] ] } ] ] ] { {     ",
"    } ] ] } ] } ] } ] } ] } ] } } ' } } } } } } } } ' } [ [ [ [ ] } ] } } ] } ] ] } ] } ] } { {     ",
"    } } } } } } } } } ] } ] } ] ' [ [ [ } } } } } } ] ] [ [ [  .}  .}  .} } } } } } } } } } } ..    ",
"    T E E E T E E E _ } ] } ] } ' Q P P L L P P P L L J K K P P P K P P P P P K L L P P L K P P     ",
"e e e e t t t e t t k _ } } ] } V 2 1 1 : 1 1 : 1 1 : 2 2 : 2 : 1 1 1 1 1 1 1 1 1 1 1 1 1 1 1 > : : ",
"e 0 e e 0 e e e 0 e t E } ] } ] h = : : > > > > > : - - = : = = ; ; ; ; ; > ; ; ; > : : ; ; ; ; : ; ",
"t 0 0 0 0 0 0 t 0 e t Y } ] } ] g = ; ; ; ; ; ; ; ; ; ; ; ; ; ; ; ; ; ; ; ; ; ; ; ; ; ; ; ; ; ; ; ; ",
"0 0 t t t t 0 0 e 0 t Y  .} ] } g = ; ; ; ; ; ; ; ; ; ; ; ; ; ; ; ; ; ; ; ; ; ; ; ; ; ; ; ; ; ; ; : ",
"0 t 0 0 0 0 t 0 0 e t E } } } ] g = ; ; ; ; - > ; ; ; ; ; ; ; ; = > - > ; ; ; ; ; ; ; ; ; ; - > ; ; ",
"0 0 t 0 0 t 0 0 e 0 t E  .] ] } f = ; ; > = > - ; ; ; ; ; ; ; ; > - > - ; ; ; ; ; ; ; ; > = > - ; ; ",
"t 0 0 t 0 0 0 t 0 e t E } } ] ] h = ; ; ; ; - > - > > > ; = > ; - > - > > - > > ; ; - > - > - > ; ; ",
"t 0 0 0 0 0 0 0 0 0 p / } ] }  .B : ; ; = ; > > - - - > * > * * > > - - - - - > > = > > - * > > ; : ",
"  l A A S A A S A S ~ ] ] } ] } ' V N N N N N M N N M N M M N N N N M M N N M M N N N N N N N M a   ",
"     .] }  .] } } } } } } ] } ] ' [ [  .}  . . .} ]  . . . . .]  . . . .} ]  .} ] ]  . .] }  . .    ",
"    } ] } ] } ] ] ] ] } ] } ] ] ] } ] } ] } ] ] ] } ] } ] } ] } ] } ] } ] } ] } } ] } ] } ] } ]     ",
"    ] } ] } ] } ] ] } ] } ] ] ] } ] } ] } ] } ] } ] } ] } ] } ] } ] } ] } ] } ] ] } ] ] ] } ] }     ",
"     . . . . . .......]  ....... . . . . . .] .. . . . . . . . .} ] } ] ] } ] }  . .}  . . .} }     ",
"  a M M M M M M M N N N N N N N M M M M M M M N M M M M M M M M V ' ] } } ] } W n n b b b n v v 5   ",
"; ; > * > - - - * * > * * * * * > - - - * * > * * * * * > - - - : B } ] ] } ! 3 . . o o + + . . + $ ",
"; > = ; > > - > ; ; > * > > > ; > > - > ; ; > * > > > ; > > - > - g ] } } ] J $ . # + # + + + + + + ",
"; ; ; ; > = > - ; ; ; ; > ; ; ; > = > - ; ; ; ; > ; ; ; > = > - - g ] } ]  .H $ + + + + + + + + + + ",
"; ; ; ; ; > - > ; ; ; ; ; ; ; ; ; > - > ; ; ; ; ; ; ; ; ; > - > - g } ] }  .J & + + + + + + + + + + ",
"; ; ; ; ; ; ; ; ; ; ; ; ; ; ; ; ; ; ; ; ; ; ; ; ; ; ; ; ; ; ; ; = g { ' [  .G & $ + . $ . $ . $ + + ",
"; ; ; ; ; ; ; ; ; ; ; ; ; ; ; ; ; ; ; ; ; ; ; ; ; ; ; ; ; ; ; ; = g ' { [  .G & + + $ . $ . $ . + + ",
"; ; ; ; ; ; ; > ; ; ; ; ; ; ; ; ; ; : : ; ; ; ; ; ; ; ; ; ; : : = h [ [ [ [ G & . $ . $ . $ . $ + + ",
"; ; < < < < < 1 < < < < < < < < 1 1 1 1 1 < < < < < < < 1 1 1 1 2 V [ [ [ [ ) 5 & & & & & & & $ + $ ",
"    P K K K K K K K K K K K K K P K K P K K K K K K K K K K P K Q [ [ [ [ [ [ ) J J J J G G G G     ",
"     .}  .}  .}  .[  .[ { [  .[  .[ [  .[ [ [ [ [ { [ [ [ [  .[ [ [ [ [ [ [ [ [ } } ]  .}  . . .    ",
"    } ] ] } ] } [ [ [ [ [ [ [ [ [ [ [ [ [ [ [ [ { { { [ [ [ [ [ [ [ [ [ [ [ [ [ ] ] ] } ] } ] }     ",
"    ] } } ] } ] [ [ [ [ [ [ [ [ [ [ [ [ [ [ [ [ { { ' [ [ [ [ [ [ [ [ [ [ [ [ [ ] } } ] } ] } ]     ",
"    ' } [ ' ' { [ [ { ' { [ [ [ [ [ [ [ [ [ [ [ ] } ] } ] } ] } ' } ' } ' } } } } ] } } } } } }     ",
"  8 g g g f g g h j V { ' [ [ [ ) c 7 7 7 7 7 7 7 7 7 7 7 7 7 7 7 7 7 7 7 7 7 7 6 s 6 6 6 6 7 7 3   ",
": > = = = = ; ; ; = 2 Q [ [ [ [ c . . . + . . . . . . . . . . . . . . . . . . . . . . . . . . . + + ",
"> = ; ; : = ; ; ; ; 1 K [ [ [ [ 7 . + + + + + + + + + + + + + + + + + + + + + + O O O O + + + + + + ",
"; ; ; ; ; ; ; ; ; ; 1 K [ [ [ [ 7 . + + + + + + + + + + + + + + + + + + + + + + + + + + + + + + + + ",
"; ; ; ; ; ; ; ; ; ; 1 K  .[ [ [ 7 . + + + + + + + + + + + + + + + + + + + + + + + + + + + + + + + + ",
"; ; ; ; ; ; ; ; ; ; 1 K [ [ [ [ 7 . + + + + + + + + + + + + + + + + + + + + + + + + + + + + + + + + ",
"; ; ; ; ; ; ; ; ; ; 1 P  .[ [ [ 7 . + + + + + + + + + + + + + + + + + + + + + + + + + + + + + + + + ",
"; ; ; ; ; ; ; ; ; ; :           3 + + + + + + + + + + + + + + + + + + + + + + + + + + + + + + + + + ",
"; ; ; ; ; ; ; ; ; ; :             $ + + + + + + + + + + + + + + + + + + + + + + + + + + + + + + + $ "
};
