/* XPM */
static char *result[] = {
/* columns rows colors chars-per-pixel */
"50 50 6 1 ",
"  c #5E7830",
". c #7A633C",
"X c #697444",
"o c #806A3E",
"O c #876F41",
"+ c #6A8836",
/* pixels */
"ooOOOXXXoooooooOOOooo+++OOOooooooo+++ooo....oooooo",
"ooOOOXXXoooooooOOOooo+++OOOooooooo+++ooo....oooooo",
"ooOOOXXXoooooooOOOooo+++OOOooooooo+++ooo....oooooo",
"ooooooooooo....oooooo   ooo....ooo   ooooooooooOOO",
"ooooooooooo....oooooo   ooo....ooo   ooooooooooOOO",
"ooooooooooo....oooooo   ooo....ooo   ooooooooooOOO",
"..ooo+++oooooooOOOoooXXXooooooooooXXXoooOOOO...ooo",
"..ooo+++oooooooOOOoooXXXooooooooooXXXoooOOOO...ooo",
"..ooo+++oooooooOOOoooXXXooooooooooXXXoooOOOO...ooo",
"ooooo   ooo.......oooooooooOOOOOOOooooooooooooo+++",
"ooooo   ooo.......oooooooooOOOOOOOooooooooooooo+++",
"ooooo   ooo.......oooooooooOOOOOOOooooooooooooo+++",
"oooooXXXoooooooooo......ooooooo...ooo...ooooooo   ",
"oooooXXXoooooooooo......ooooooo...ooo...ooooooo   ",
"oooooXXXoooooooooo......ooooooo...ooo...ooooooo   ",
"oooooXXXoooooooooo......ooooooo...ooo...ooooooo   ",
"..ooooooOOOoooo+++ooooooOOOooooooooooooo++++oooXXX",
"..ooooooOOOoooo+++ooooooOOOooooooooooooo++++oooXXX",
"..ooooooOOOoooo+++ooooooOOOooooooooooooo++++oooXXX",
"ooOOOoooooooooo   OOOoooooo....oooOOOooo    oooooo",
"ooOOOoooooooooo   OOOoooooo....oooOOOooo    oooooo",
"ooOOOoooooooooo   OOOoooooo....oooOOOooo    oooooo",
"ooooo...oooooooXXXoooooooooooooOOOooooooXXXXOOOooo",
"ooooo...oooooooXXXoooooooooooooOOOooooooXXXXOOOooo",
"ooooo...oooooooXXXoooooooooooooOOOooooooXXXXOOOooo",
"oo+++oooooo....oooooo...ooo++++oooooooooOOOOoooooo",
"oo+++oooooo....oooooo...ooo++++oooooooooOOOOoooooo",
"oo+++oooooo....oooooo...ooo++++oooooooooOOOOoooooo",
"OO   oooOOOoooooooOOOoooooo    ooo...ooooooo...+++",
"OO   oooOOOoooooooOOOoooooo    ooo...ooooooo...+++",
"OO   oooOOOoooooooOOOoooooo    ooo...ooooooo...+++",
"ooXXXoooooo++++ooo...ooooooXXXXooooooOOOooooOOO   ",
"ooXXXoooooo++++ooo...ooooooXXXXooooooOOOooooOOO   ",
"ooXXXoooooo++++ooo...ooooooXXXXooooooOOOooooOOO   ",
"ooooooooooo    oooooooooOOOooooooo...ooooooooooXXX",
"ooooooooooo    oooooooooOOOooooooo...ooooooooooXXX",
"ooooooooooo    oooooooooOOOooooooo...ooooooooooXXX",
"oo...ooooooXXXXoooooo...ooo++++oooooooooOOOOoooooo",
"oo...ooooooXXXXoooooo...ooo++++oooooooooOOOOoooooo",
"oo...ooooooXXXXoooooo...ooo++++oooooooooOOOOoooooo",
"oo...ooooooXXXXoooooo...ooo++++oooooooooOOOOoooooo",
"oooooOOOoooooooooo+++OOOooo    oooOOO+++ooooooo...",
"oooooOOOoooooooooo+++OOOooo    oooOOO+++ooooooo...",
"oooooOOOoooooooooo+++OOOooo    oooOOO+++ooooooo...",
"..ooo+++ooo.......   ooooooXXXXoooooo   oooo...ooo",
"..ooo+++ooo.......   ooooooXXXXoooooo   oooo...ooo",
"..ooo+++ooo.......   ooooooXXXXoooooo   oooo...ooo",
"OOooo   ooooooooooXXXoooOOOooooooo...XXXOOOOoooOOO",
"OOooo   ooooooooooXXXoooOOOooooooo...XXXOOOOoooOOO",
"OOooo   ooooooooooXXXoooOOOooooooo...XXXOOOOoooOOO"
};
