/* XPM */
static char *result[] = {
/* columns rows colors chars-per-pixel */
"50 50 107 2 ",
"   c #954613",
".  c #984815",
"X  c #994916",
"o  c #9B4A16",
"O  c #9D4A16",
"+  c #9D4D1B",
"@  c #A34E17",
"#  c #A54F17",
"$  c #A64F17",
"%  c #A65017",
"&  c #A75018",
"*  c #A95118",
"=  c #AA5219",
"-  c #AB531A",
";  c #B5581C",
":  c #B5581D",
">  c #B6591E",
",  c #A35220",
"<  c #A85827",
"1  c #BA5E24",
"2  c #B25B28",
"3  c #B05E2E",
"4  c #BD6938",
"5  c #BC6A3B",
"6  c #C6601F",
"7  c #C66020",
"8  c #C66021",
"9  c #C96426",
"0  c #C0642D",
"q  c #C0652D",
"w  c #C2652D",
"e  c #CD6A2E",
"r  c #CD6B2F",
"t  c #D56622",
"y  c #D56722",
"u  c #D56723",
"i  c #D76B29",
"p  c #CB6C35",
"a  c #CC6D35",
"s  c #C86E3A",
"d  c #D96F30",
"f  c #D97030",
"g  c #D97031",
"h  c #DA7031",
"j  c #DA7132",
"k  c #D3733B",
"l  c #DC773C",
"z  c #DD773C",
"x  c #DD783D",
"c  c #C47143",
"v  c #C47144",
"b  c #C47244",
"n  c #CC7443",
"m  c #D87740",
"M  c #D17949",
"N  c #D77E4E",
"B  c #D07D51",
"V  c #D38054",
"C  c #D98050",
"Z  c #DA8253",
"A  c #DA8457",
"S  c #DC8556",
"D  c #DD8557",
"F  c #DB8558",
"G  c #D9855A",
"H  c #D9865A",
"J  c #DB875D",
"K  c #E8834D",
"L  c #E9844E",
"P  c #E9844F",
"I  c #E9854F",
"U  c #EA854F",
"Y  c #E38451",
"T  c #E38551",
"R  c #E38552",
"E  c #E38654",
"W  c #E58959",
"Q  c #E58A59",
"!  c #E0895C",
"~  c #E68C5E",
"^  c #E38C60",
"/  c #E58D60",
"(  c #E78E60",
")  c #EA9063",
"_  c #EA9064",
"`  c #EA9164",
"'  c #EB9165",
"]  c #E69168",
"[  c #E79268",
"{  c #E79269",
"}  c #E89268",
"|  c #E99368",
" . c #E99369",
".. c #EA9368",
"X. c #EA9369",
"o. c #EA9469",
"O. c #E9946B",
"+. c #EA956C",
"@. c #EB956C",
"#. c #EB966C",
"$. c #EB966D",
"%. c #EB966E",
"&. c #EB976E",
"*. c #EC976E",
"=. c #EC976F",
"-. c #ED9870",
";. c None",
/* pixels */
";.;.;.;.;.;.;.;.;.* * * * * * * * * * * * * * * * * * * * * * * * * * * * * & o X ;.;.;.;.;.;.;.;.;.",
";.;.;.;.;.;.;.;.;.* * * * * * * * * * * * * * * * * * * * * * * * * * * * * & o X ;.;.;.;.;.;.;.;.;.",
";.;.;.;.;.;.;.;.;.* * * = - - - - - - - - - - - - - - - - - - - - - - - - = & o X ;.;.;.;.;.;.;.;.;.",
";.;.;.;.;.;.;.;.;.* # O 4 F A A A A A A A A A A A A A A A A A A A A A C m w % o X ;.;.;.;.;.;.;.;.;.",
";.;.;.;.;.;.;.;.;.* @ . b -.*.*.*.*.*.*.*.*.*.*.*.*.*.*.*.*.*.*.*.*.=.' U a $ o X ;.;.;.;.;.;.;.;.;.",
";.;.;.;.;.;.;.;.;.* @ . c *.$.$.$.$.$.$.$.$.$.$.$.$.$.$.$.$.$.$.$.$.%._ L p $ o X ;.;.;.;.;.;.;.;.;.",
";.;.;.;.;.;.;.;.;.* @ . c *.$.$.$.$.#.#.#.#.#.#.#.#.#.#.#.#.#.#.#.$.%._ L p $ o X ;.;.;.;.;.;.;.;.;.",
";.;.;.;.;.;.;.;.;.* @ . c *.$.%.~ x l l l l l l l l l l l l z k s ! *._ L p $ o X ;.;.;.;.;.;.;.;.;.",
";.;.;.;.;.;.;.;.;.* @ . c *.$.&.Y t t t t t t t t t t t t t t 6 ; N =._ L p $ o X ;.;.;.;.;.;.;.;.;.",
";.;.;.;.;.;.;.;.;.* @ . c *.$.&.R u u u u u u u u u u u u u u 8 > N =._ L p $ o X ;.;.;.;.;.;.;.;.;.",
";.;.;.;.;.;.;.;.;.* @ . c *.$.&.R u u u u u u u u u u u u u u 8 > N =._ L p $ o X ;.;.;.;.;.;.;.;.;.",
";.;.;.;.;.;.;.;.;.* @ . c *.$.&.R u u u u u u u u u u u u u u 8 > N =._ L p $ o X ;.;.;.;.;.;.;.;.;.",
";.;.;.;.;.;.;.;.;.* @ . c *.$.&.R u u u u u u u u u u u u u u 8 > N =._ L p $ o X ;.;.;.;.;.;.;.;.;.",
";.;.;.;.;.;.;.;.;.* @ . c *.$.&.R u u u u u u u u u u u u u u 8 > N =._ L p $ o X ;.;.;.;.;.;.;.;.;.",
";.;.;.;.;.;.;.;.;.* @ . c *.$.&.R u u u u u u u u u u u u u u 8 > N =._ L p $ o X ;.;.;.;.;.;.;.;.;.",
";.;.;.;.;.;.;.;.;.* @ . c *.$.&.R u u u u u u u u u u u u u u 8 > N =._ L p $ o X ;.;.;.;.;.;.;.;.;.",
";.;.;.;.;.;.;.;.;.* @ . c *.$.&.R u u u u u u u u u u u u u u 8 > N =._ L p $ o X ;.;.;.;.;.;.;.;.;.",
";.;.;.;.;.;.;.;.;.* @ . c *.$.&.R u u u u u u u u u u u u u u 8 > N =._ L p $ o X ;.;.;.;.;.;.;.;.;.",
";.;.;.;.;.;.;.;.;.* @ . c *.$.&.R u u u u u u u u u u u u u u 8 > N =._ L p $ o X ;.;.;.;.;.;.;.;.;.",
";.;.;.;.;.;.;.;.;.* @ . c *.$.&.R u u u u u u u u u u u u u u 8 > N =._ L p $ o X ;.;.;.;.;.;.;.;.;.",
";.;.;.;.;.;.;.;.;.* @ . c *.$.&.R u u u u u u u u u u u u u u 8 > N =._ L p $ o X ;.;.;.;.;.;.;.;.;.",
";.;.;.;.;.;.;.;.;.* @ . c *.$.&.R u u u u u u u u u u u u u u 8 > N =._ L p $ o X ;.;.;.;.;.;.;.;.;.",
";.;.;.;.;.;.;.;.;.* @ . c *.$.&.T u u u u u u u u u u u u u u 7 : N =._ L p $ o X ;.;.;.;.;.;.;.;.;.",
";.;.;.;.;.;.;.;.;.* @ . c *.$.&.E i i i i i i i i i i i i i i 9 1 Z =._ L p $ o X ;.;.;.;.;.;.;.;.;.",
";.;.;.;.;.;.;.;.;.* @ . c *.$.$...( ( ( ( ( ( ( ( ( ( ( ( ( ( / ^  .O.` P p $ o X ;.;.;.;.;.;.;.;.;.",
";.;.;.;.;.;.;.;.;.* @ . c *.$.$.$.&.&.&.&.&.&.&.&.&.&.&.&.&.O.J G v 3 M I p $ o X ;.;.;.;.;.;.;.;.;.",
";.;.;.;.;.;.;.;.;.* @ . c *.$.$.$.$.$.$.$.$.$.$.$.$.$.$.$.*.H , + X   2 K p $ o X ;.;.;.;.;.;.;.;.;.",
";.;.;.;.;.;.;.;.;.* @ . c *.$.$.$.$.$.$.$.$.$.$.$.$.$.$.$.%.{ V B 5 < n P p $ o X ;.;.;.;.;.;.;.;.;.",
";.;.;.;.;.;.;.;.;.* @ . c *.$.$.@.X...........................o. .O.] ) P p $ o X ;.;.;.;.;.;.;.;.;.",
";.;.;.;.;.;.;.;.;.* @ . c *.$.&.Q j g g g g g g g g g g g g h r q D =._ L p $ o X ;.;.;.;.;.;.;.;.;.",
";.;.;.;.;.;.;.;.;.* @ . c *.$.&.Y y t t t t t t t t t t t t y 7 : N =._ L p $ o X ;.;.;.;.;.;.;.;.;.",
";.;.;.;.;.;.;.;.;.* @ . c *.$.&.R u u u u u u u u u u u u u u 8 > N =._ L p $ o X ;.;.;.;.;.;.;.;.;.",
";.;.;.;.;.;.;.;.;.* @ . c *.$.&.R u u u u u u u u u u u u u u 8 > N =._ L p $ o X ;.;.;.;.;.;.;.;.;.",
";.;.;.;.;.;.;.;.;.* @ . c *.$.&.R u u u u u u u u u u u u u u 8 > N =._ L p $ o X ;.;.;.;.;.;.;.;.;.",
";.;.;.;.;.;.;.;.;.* @ . c *.$.&.R u u u u u u u u u u u u u u 8 > N =._ L p $ o X ;.;.;.;.;.;.;.;.;.",
";.;.;.;.;.;.;.;.;.* @ . c *.$.&.R u u u u u u u u u u u u u u 8 > N =._ L p $ o X ;.;.;.;.;.;.;.;.;.",
";.;.;.;.;.;.;.;.;.* @ . c *.$.&.R u u u u u u u u u u u u u u 8 > N =._ L p $ o X ;.;.;.;.;.;.;.;.;.",
";.;.;.;.;.;.;.;.;.* @ . c *.$.&.R u u u u u u u u u u u u u u 8 > N =._ L p $ o X ;.;.;.;.;.;.;.;.;.",
";.;.;.;.;.;.;.;.;.* @ . c *.$.&.R u u u u u u u u u u u u u u 8 > N =._ L p $ o X ;.;.;.;.;.;.;.;.;.",
";.;.;.;.;.;.;.;.;.* @ . c *.$.&.R u u u u u u u u u u u u u u 8 > N =._ L p $ o X ;.;.;.;.;.;.;.;.;.",
";.;.;.;.;.;.;.;.;.* @ . c *.$.&.R u u u u u u u u u u u u u u 8 > N =._ L p $ o X ;.;.;.;.;.;.;.;.;.",
";.;.;.;.;.;.;.;.;.* @ . c *.$.&.R u u u u u u u u u u u u u u 8 > N =._ L p $ o X ;.;.;.;.;.;.;.;.;.",
";.;.;.;.;.;.;.;.;.* @ . c *.$.&.R u u u u u u u u u u u u u u 8 > N =._ L p $ o X ;.;.;.;.;.;.;.;.;.",
";.;.;.;.;.;.;.;.;.* @ . c *.$.&.R u u u u u u u u u u u u u u 8 > N =._ L p $ o X ;.;.;.;.;.;.;.;.;.",
";.;.;.;.;.;.;.;.;.* @ . c *.$.&.Y y t t t t t t t t t t t t y 7 : N =._ L p $ o X ;.;.;.;.;.;.;.;.;.",
";.;.;.;.;.;.;.;.;.* @ . c *.$.&.W g d d d d d d d d d d d d f e 0 S =._ L p $ o X ;.;.;.;.;.;.;.;.;.",
";.;.;.;.;.;.;.;.;.* @ . c *.$.$.@...| | | | | | | | | | | | | } [ +.%._ L p $ o X ;.;.;.;.;.;.;.;.;.",
";.;.;.;.;.;.;.;.;.* @ . c *.$.$.$.$.$.$.$.$.$.$.$.$.$.$.$.$.$.$.$.$.%._ L p $ o X ;.;.;.;.;.;.;.;.;.",
";.;.;.;.;.;.;.;.;.* @ . c *.$.$.$.$.$.$.$.$.$.$.$.$.$.$.$.$.$.$.$.$.%._ L p $ o X ;.;.;.;.;.;.;.;.;.",
";.;.;.;.;.;.;.;.;.* @ . c *.$.$.$.$.$.$.$.$.$.$.$.$.$.$.$.$.$.$.$.$.%._ L p $ o X ;.;.;.;.;.;.;.;.;."
};
