/* XPM */
static char *result[] = {
/* columns rows colors chars-per-pixel */
"50 50 15 1 ",
"  c #170E07",
". c #171210",
"X c #1D1715",
"o c #1E2F15",
"O c #3A2211",
"+ c #1A1F24",
"@ c #21282E",
"# c #4B7635",
"$ c #404E59",
"% c #526573",
"& c #609744",
"* c #7CBC57",
"= c #EE8314",
"- c #6A8293",
"; c None",
/* pixels */
";;;;;;;;;;;;;;;;;;;XXXXXXXXXXXX;;;;;;;;;;;;;;;;;;;",
";;;;;;;;;;;;;;;;;;;XXXXXXXXXXXX;;;;;;;;;;;;;;;;;;;",
";;;;;;;;;;;;;;;;;;;XXXXXXXXXXXX;;;;;;;;;;;;;;;;;;;",
";;;;;;;;XXXX;;;XXXX%%%%%%%%%%%%XXXX;;;XXXX;;;;;;;;",
";;;;;;;;XXXX;;;XXXX%%%%%%%%%%%%XXXX;;;XXXX;;;;;;;;",
";;;;;;;;XXXX;;;XXXX%%%%%%%%%%%%XXXX;;;XXXX;;;;;;;;",
";;;;XXXX****XXX%%%%%%%%%%%%%%%%%%%%XXX****XXXX;;;;",
";;;;XXXX****XXX%%%%%%%%%%%%%%%%%%%%XXX****XXXX;;;;",
";;;;XXXX****XXX%%%%%%%%%%%%%%%%%%%%XXX****XXXX;;;;",
";;;;XXXX&&&&@@@--------%%%%--------@@@&&&&XXXX;;;;",
";;;;XXXX&&&&@@@--------%%%%--------@@@&&&&XXXX;;;;",
";;;;XXXX&&&&@@@--------%%%%--------@@@&&&&XXXX;;;;",
";;;;;;;;XXXX@@@====....####....====@@@XXXX;;;;;;;;",
";;;;;;;;XXXX@@@====....####....====@@@XXXX;;;;;;;;",
";;;;;;;;XXXX@@@====....####....====@@@XXXX;;;;;;;;",
";;;;;;;;XXXX@@@====....####....====@@@XXXX;;;;;;;;",
";;;;XXXX----ooo&&&&&&&&****&&&&&&&&ooo----XXXX;;;;",
";;;;XXXX----ooo&&&&&&&&****&&&&&&&&ooo----XXXX;;;;",
";;;;XXXX----ooo&&&&&&&&****&&&&&&&&ooo----XXXX;;;;",
";;;;XXXX----$$$oooo&&&&####&&&&oooo$$$----XXXX;;;;",
";;;;XXXX----$$$oooo&&&&####&&&&oooo$$$----XXXX;;;;",
";;;;XXXX----$$$oooo&&&&####&&&&oooo$$$----XXXX;;;;",
"XXXX%%%%$$$$%%%$$$$oooooooooooo$$$$%%%$$$$%%%%XXXX",
"XXXX%%%%$$$$%%%$$$$oooooooooooo$$$$%%%$$$$%%%%XXXX",
"XXXX%%%%$$$$%%%$$$$oooooooooooo$$$$%%%$$$$%%%%XXXX",
"XXXX%%%%$$$$@@@%%%%$$$$$$$$$$$$%%%%@@@$$$$%%%%XXXX",
"XXXX%%%%$$$$@@@%%%%$$$$$$$$$$$$%%%%@@@$$$$%%%%XXXX",
"XXXX%%%%$$$$@@@%%%%$$$$$$$$$$$$%%%%@@@$$$$%%%%XXXX",
"XXXX&&&&####@@@%%%%------------%%%%@@@####&&&&XXXX",
"XXXX&&&&####@@@%%%%------------%%%%@@@####&&&&XXXX",
"XXXX&&&&####@@@%%%%------------%%%%@@@####&&&&XXXX",
"XXXX&&&&++++$$$%%%%$$$$$$$$%%%%%%%%$$$++++&&&&XXXX",
"XXXX&&&&++++$$$%%%%$$$$$$$$%%%%%%%%$$$++++&&&&XXXX",
"XXXX&&&&++++$$$%%%%$$$$$$$$%%%%%%%%$$$++++&&&&XXXX",
";;;;XXXX    OOO@@@@++++XXXX++++@@@@OOO    XXXX;;;;",
";;;;XXXX    OOO@@@@++++XXXX++++@@@@OOO    XXXX;;;;",
";;;;XXXX    OOO@@@@++++XXXX++++@@@@OOO    XXXX;;;;",
";;;;;;;;XXXXOOOOOOOXXXX;;;;XXXXOOOOOOOXXXX;;;;;;;;",
";;;;;;;;XXXXOOOOOOOXXXX;;;;XXXXOOOOOOOXXXX;;;;;;;;",
";;;;;;;;XXXXOOOOOOOXXXX;;;;XXXXOOOOOOOXXXX;;;;;;;;",
";;;;;;;;XXXXOOOOOOOXXXX;;;;XXXXOOOOOOOXXXX;;;;;;;;",
";;;;;;;;;;;;XXXXXXX;;;;;;;;;;;;XXXXXXX;;;;;;;;;;;;",
";;;;;;;;;;;;XXXXXXX;;;;;;;;;;;;XXXXXXX;;;;;;;;;;;;",
";;;;;;;;;;;;XXXXXXX;;;;;;;;;;;;XXXXXXX;;;;;;;;;;;;",
";;;;;;;;;;;;;;;;;;;;;;;;;;;;;;;;;;;;;;;;;;;;;;;;;;",
";;;;;;;;;;;;;;;;;;;;;;;;;;;;;;;;;;;;;;;;;;;;;;;;;;",
";;;;;;;;;;;;;;;;;;;;;;;;;;;;;;;;;;;;;;;;;;;;;;;;;;",
";;;;;;;;;;;;;;;;;;;;;;;;;;;;;;;;;;;;;;;;;;;;;;;;;;",
";;;;;;;;;;;;;;;;;;;;;;;;;;;;;;;;;;;;;;;;;;;;;;;;;;",
";;;;;;;;;;;;;;;;;;;;;;;;;;;;;;;;;;;;;;;;;;;;;;;;;;"
};
