/* XPM */
static char *result[] = {
/* columns rows colors chars-per-pixel */
"50 50 10 1 ",
"  c #271E0E",
". c #002D16",
"X c #003319",
"o c #0C3D25",
"O c #006430",
"+ c #007137",
"@ c #56411F",
"# c #00803E",
"$ c #009146",
"% c None",
/* pixels */
"%%%%%%%%%%%%%%%%%%XXX%%%%%%%%%%XXX%%%%%%%%%%%%%%%%",
"%%%%%%%%%%%%%%%%%%XXX%%%%%%%%%%XXX%%%%%%%%%%%%%%%%",
"%%%%%%%%%%%%%%%%%%XXX%%%%%%%%%%XXX%%%%%%%%%%%%%%%%",
"%%%%%%%%%XXXXXXXXX$$$XXXXXXXXXX$$$XXX%%%%%%%%%%%%%",
"%%%%%%%%%XXXXXXXXX$$$XXXXXXXXXX$$$XXX%%%%%%%%%%%%%",
"%%%%%%%%%XXXXXXXXX$$$XXXXXXXXXX$$$XXX%%%%%%%%%%%%%",
"%%oooXXXX###$$$$$$######$$$$###$$$###XXX%%%%%%%%%%",
"%%oooXXXX###$$$$$$######$$$$###$$$###XXX%%%%%%%%%%",
"%%oooXXXX###$$$$$$######$$$$###$$$###XXX%%%%%%%%%%",
"%%oooXXXX$$$######$$$$$$$$$$############XXXX%%%%%%",
"%%%%%XXXX$$$######$$$$$$$$$$############XXXX%%%%%%",
"%%%%%XXXX$$$######$$$$$$$$$$############XXXX%%%%%%",
"%%XXX##########$$$$$$$$$####$$$$$$######$$$$XXX%%%",
"%%XXX##########$$$$$$$$$####$$$$$$######$$$$XXX%%%",
"ooXXX##########$$$$$$$$$####$$$$$$######$$$$XXX%%%",
"ooXXX##########$$$$$$$$$####$$$$$$######$$$$XXX%%%",
"ooXXX$$$$###$$$+++$$$+++####$$$######$$$####XXX%%%",
"ooXXX$$$$###$$$+++$$$+++####$$$######$$$####XXXooo",
"%%XXX$$$$###$$$+++$$$+++####$$$######$$$####XXXooo",
"%%XXX#############+++###$$$$+++###$$$$$$####XXXooo",
"%%XXX#############+++###$$$$+++###$$$$$$####XXXooo",
"%%XXX#############+++###$$$$+++###$$$$$$####XXX%%%",
"%%XXX$$$$#########$$$#######$$$################%%%",
"%%XXX$$$$#########$$$#######$$$################%%%",
"%%XXX$$$$#########$$$#######$$$################%%%",
"%%XXX####+++###$$$+++##########+++###$$$####XXX%%%",
"%%XXX####+++###$$$+++##########+++###$$$####XXX%%%",
"%%XXX####+++###$$$+++##########+++###$$$####XXX%%%",
"%%$$$##########+++######++++######+++$$$####XXX%%%",
"%%$$$##########+++######++++######+++$$$####XXX%%%",
"%%$$$##########+++######++++######+++$$$####XXX%%%",
"%%XXX####$$$###++++++$$$OOOO+++######++++++++++%%%",
"%%XXX####$$$###++++++$$$OOOO+++######++++++++++%%%",
"%%XXX####$$$###++++++$$$OOOO+++######++++++++++%%%",
"%%XXX++++++++++OOO###+++++++###$$$###+++++++XXX%%%",
"%%XXX++++++++++OOO###+++++++###$$$###+++++++XXX%%%",
"%%XXX++++++++++OOO###+++++++###$$$###+++++++XXXooo",
"ooXXXOOOO###OOO###+++OOOOOOO###OOO+++###OOOO...ooo",
"ooXXXOOOO###OOO###+++OOOOOOO###OOO+++###OOOO...ooo",
"ooXXXOOOO###OOO###+++OOOOOOO###OOO+++###OOOO...%%%",
"ooXXXOOOO###OOO###+++OOOOOOO###OOO+++###OOOO...%%%",
"%%%%%XXXXOOO++++++OOO@@@@@@@OOOOOOOOOOOOXXXX%%%%%%",
"%%%%%XXXXOOO++++++OOO@@@@@@@OOOOOOOOOOOOXXXX%%%%%%",
"%%%%%XXXXOOO++++++OOO@@@@@@@OOOOOOOOOOOOXXXX%%%%%%",
"%%%%%%%%%XXXXXXXXXXXX       XXXXXXXXXXXX%%%%%%%%%%",
"%%%%%%%%%XXXXXXXXXXXX       XXXXXXXXXXXX%%%%%%%%%%",
"%%%%%%%%%XXXXXXXXXXXX       XXXXXXXXXXXX%%%%%%%%%%",
"%%%%%%%%%%%%%%%%%%%%%%%%%%%%%%%%%%%%%%%%%%%%%%%%%%",
"%%%%%%%%%%%%%%%%%%%%%%%%%%%%%%%%%%%%%%%%%%%%%%%%%%",
"%%%%%%%%%%%%%%%%%%%%%%%%%%%%%%%%%%%%%%%%%%%%%%%%%%"
};
