/* XPM */
static char *bfcb1b116a8d4b4baf7d784ce87381ddqScM7yxOPAt8afVB[] = {
/* columns rows colors chars-per-pixel */
"50 50 94 2 ",
"   c None",
".  c #8E0202",
"X  c #9E0101",
"o  c #A20202",
"O  c #A70101",
"+  c #A60303",
"@  c #A90101",
"#  c #A90202",
"$  c #AD0202",
"%  c #AF0404",
"&  c #B20101",
"*  c #B30101",
"=  c #B00202",
"-  c #B70101",
";  c #B40202",
":  c #B60303",
">  c #B80101",
",  c #B90101",
"<  c #BA0101",
"1  c #BB0101",
"2  c #BC0000",
"3  c #BD0000",
"4  c #BC0101",
"5  c #BD0101",
"6  c #BE0000",
"7  c #BF0000",
"8  c #BE0101",
"9  c #BF0202",
"0  c #B91919",
"q  c #C00000",
"w  c #C10000",
"e  c #C00101",
"r  c #C20000",
"t  c #C40101",
"y  c #C60000",
"u  c #C70000",
"i  c #C60303",
"p  c #CB0000",
"a  c #CC0000",
"s  c #CD0000",
"d  c #CE0000",
"f  c #CF0000",
"g  c #CF0101",
"h  c #CC0202",
"j  c #CD0202",
"k  c #CE0202",
"l  c #CF0202",
"z  c #D00000",
"x  c #D00101",
"c  c #D10101",
"v  c #D20000",
"b  c #D30000",
"n  c #D20101",
"m  c #D30101",
"M  c #D00202",
"N  c #D40000",
"B  c #D50000",
"V  c #D40101",
"C  c #D40202",
"Z  c #D40303",
"A  c #D40404",
"S  c #D50505",
"D  c #D40606",
"F  c #D50606",
"G  c #D50808",
"H  c #D50A0A",
"J  c #D60D0D",
"K  c #D60E0F",
"L  c #D60F0F",
"P  c #C81717",
"I  c #CC1415",
"U  c #CA1818",
"Y  c #CE1818",
"T  c #CE1819",
"R  c #D21010",
"E  c #D51010",
"W  c #D61010",
"Q  c #D31717",
"!  c #D61515",
"~  c #D71616",
"^  c #D71717",
"/  c #D01919",
"(  c #D31919",
")  c #D51818",
"_  c #D41819",
"`  c #D41919",
"'  c #D51919",
"]  c #D61818",
"[  c #D71818",
"{  c #D61919",
"}  c #D71919",
"|  c #D51A1A",
" . c #D71A1A",
".. c #D81919",
/* pixels */
"                                                                                                    ",
"                                                                                                    ",
"                                                                                                    ",
"                                                                                                    ",
"                                                                                                    ",
"                                                                                                    ",
"                                      0                                                             ",
"                            _ _  ..._  .                                                            ",
"                            _ .._ .._ ..                                                            ",
"                            _ ........^                                                             ",
"                      T ..! H F G G F H E _ (                                                       ",
"                      T ..^ F C C C C C E ....                                                      ",
"                      U ....F C C C C C J ....P                                                     ",
"                      I ! ! C C C C C C J ^ !                                                       ",
"                ( _ ) F C C C C C C C C C C A                                                       ",
"                _ _ ^ A C C C C C C C C C C C                                                       ",
"                _ ..^ C C C C C C C C C C C C                                                       ",
"                R E J C C C C C C C C C C C C M                                                     ",
"                M C C C C C C C C C C C C C C C C C M                                               ",
"                M C C C C C C C C C C C C C C C C C M                                               ",
"                M C C C C C C C C C C C C C C C C C C                                               ",
"                t t p C C C C C C C C C C C C M                                                     ",
"                1 7 7 M C C C C C C C C C C C                                                       ",
"                1 7 r M C C C C C C C C C C C                                                       ",
"                1 7 7 k M M C C C C C C C C C M                                                     ",
"                      7 r t M C C C C C C C C C M M                                                 ",
"                      1 7 7 k C C C C C C C C C C C M                                               ",
"                      1 7 7 k C C C C C C C C C C C C                                               ",
"                      ; 1 7 p p k M C C C C C M k k                                                 ",
"                            1 7 7 k C C C C C                                                       ",
"                            7 7 7 k C C C C C                                                       ",
"                            1 7 7 k C C C C C                                                       ",
"                                  t t t M C C M M k                                                 ",
"                                  1 7 7 k C C C C C M                                               ",
"                                  = 7 7 k C C C C C M                                               ",
"                                  = 7 7 p M M C C M t                                               ",
"                                        7 r r 7                                                     ",
"                                        ; 7 7                                                       ",
"                                        1 7 7 :                                                     ",
"                                        + + $ %                                                     ",
"                                              = 7 7 @                                               ",
"                                              O 7 7 ;                                               ",
"                                              X 7 7 1                                               ",
"                                                o .                                                 ",
"                                                                                                    ",
"                                                                                                    ",
"                                                                                                    ",
"                                                                                                    ",
"                                                                                                    ",
"                                                                                                    "
};
