/* XPM */
static char *_62e9be29baa436f8f658b2e607b9ed7L3bDD3hf9WsNz5mw[] = {
/* columns rows colors chars-per-pixel */
"50 49 240 2 ",
"   c None",
".  c black",
"X  c #010000",
"o  c #020000",
"O  c #030000",
"+  c #040000",
"@  c #050001",
"#  c #050101",
"$  c #070101",
"%  c #0D0102",
"&  c #0E0102",
"*  c #0F0102",
"=  c #100102",
"-  c #160203",
";  c #180203",
":  c #1A0203",
">  c #1B0203",
",  c #180304",
"<  c #1A0304",
"1  c #1B0304",
"2  c #1C0204",
"3  c #210304",
"4  c #220304",
"5  c #230304",
"6  c #210405",
"7  c #250406",
"8  c #290506",
"9  c #2D0406",
"0  c #2F0607",
"q  c #310406",
"w  c #300607",
"e  c #310607",
"r  c #390507",
"t  c #340708",
"y  c #3A0508",
"u  c #390709",
"i  c #3A0709",
"p  c #3C0508",
"a  c #3F0508",
"s  c #3D0709",
"d  c #470609",
"f  c #47070A",
"g  c #4C060A",
"h  c #4D060A",
"j  c #4E060A",
"k  c #40080A",
"l  c #4B090B",
"z  c #4E090C",
"x  c #59070C",
"c  c #520A0C",
"v  c #570A0D",
"b  c #5B0B0E",
"n  c #5F0B0E",
"m  c #61080D",
"M  c #62080D",
"N  c #600B0F",
"B  c #630A0E",
"V  c #65080D",
"C  c #660C0F",
"Z  c #6A080E",
"A  c #6B0B0F",
"S  c #6C090E",
"D  c #70090F",
"F  c #660C10",
"G  c #670C10",
"H  c #6B0D10",
"J  c #6E0D11",
"K  c #750E12",
"L  c #7F0A10",
"P  c #7A0D11",
"I  c #7B0E13",
"U  c #7F0F13",
"Y  c #800F13",
"T  c #880B12",
"R  c #8A0B12",
"E  c #8B0B12",
"W  c #8F0B12",
"Q  c #960C13",
"!  c #990C14",
"~  c #8D1115",
"^  c #8F1116",
"/  c #961217",
"(  c #9E1318",
")  c #A50D15",
"_  c #BC0F18",
"`  c #A61217",
"'  c #A21319",
"]  c #A51319",
"[  c #A61419",
"{  c #A81419",
"}  c #A8141A",
"|  c #AB141A",
" . c #AC141A",
".. c #AD141A",
"X. c #B1151B",
"o. c #B3151B",
"O. c #B9141B",
"+. c #B9161C",
"@. c #BF171D",
"#. c #A1393D",
"$. c #B33237",
"%. c #C31019",
"&. c #C3171E",
"*. c #C4171E",
"=. c #C5171E",
"-. c #C7171E",
";. c #C8101A",
":. c #CB101A",
">. c #CC101A",
",. c #CE111B",
"<. c #CC181F",
"1. c #D0111B",
"2. c #D1111B",
"3. c #D2111B",
"4. c #D4111B",
"5. c #D7111C",
"6. c #D8121D",
"7. c #DA121C",
"8. c #DD121D",
"9. c #DE121D",
"0. c #DF121D",
"q. c #E0121D",
"w. c #E1121D",
"e. c #E1131D",
"r. c #E2121D",
"t. c #E3121D",
"y. c #E1131E",
"u. c #E2131E",
"i. c #E5121E",
"p. c #E6121E",
"a. c #E2141E",
"s. c #E3141E",
"d. c #E3141F",
"f. c #E4151F",
"g. c #E5161F",
"h. c #ED171F",
"j. c #F5171F",
"k. c #D21920",
"l. c #D61920",
"z. c #D71921",
"x. c #D91921",
"c. c #DB1A21",
"v. c #DC1A21",
"b. c #DF1A22",
"n. c #E51620",
"m. c #E61720",
"M. c #E11B22",
"N. c #E71B23",
"B. c #E21D25",
"V. c #E91821",
"C. c #E91922",
"Z. c #EA1922",
"A. c #EA1A23",
"S. c #EB1A23",
"D. c #EA1B23",
"F. c #EB1B23",
"G. c #ED1922",
"H. c #ED1A22",
"J. c #EC1B23",
"K. c #ED1B23",
"L. c #EC1B24",
"P. c #EA1C24",
"I. c #EB1C24",
"U. c #EC1C24",
"Y. c #ED1C24",
"T. c #EE1C24",
"R. c #EF1C24",
"E. c #ED1F27",
"W. c #EE1E26",
"Q. c #EE1F27",
"!. c #EF1F27",
"~. c #F11821",
"^. c #F11921",
"/. c #F31922",
"(. c #F01A22",
"). c #F51922",
"_. c #F41A22",
"`. c #F01C24",
"'. c #F01C25",
"]. c #F11C25",
"[. c #F21D25",
"{. c #F41D25",
"}. c #F51D25",
"|. c #F61D25",
" X c #ED2129",
".X c #EC262E",
"XX c #ED262E",
"oX c #EE272E",
"OX c #EE2A31",
"+X c #EF363D",
"@X c #AC4347",
"#X c #EE4349",
"$X c #F0444B",
"%X c #F14C52",
"&X c #E86C71",
"*X c #E86E73",
"=X c #E96F74",
"-X c #E8777B",
";X c #E9777C",
":X c #EA787D",
">X c #EB797E",
",X c #E68084",
"<X c #E88488",
"1X c #E9898D",
"2X c #F48387",
"3X c #F58488",
"4X c #E58E92",
"5X c #EE9598",
"6X c #E19EA0",
"7X c #F89EA1",
"8X c #E3A7A9",
"9X c #E5A6A9",
"0X c #EEAFB2",
"qX c #E3B1B2",
"wX c #E2B9BB",
"eX c #E9BDBF",
"rX c #F5B0B2",
"tX c #F5B6B8",
"yX c #FABBBE",
"uX c #FBCECF",
"iX c #FBCFD1",
"pX c #E0D8D9",
"aX c #FAD1D3",
"sX c #FBD8D9",
"dX c #DFE4E3",
"fX c #DFE8E8",
"gX c #DFEAE9",
"hX c #E1E5E5",
"jX c #EAE2E3",
"kX c #EDE7E7",
"lX c #E5E8E8",
"zX c #E6E8E8",
"xX c #EEEAEA",
"cX c #E8EDED",
"vX c #EFF6F6",
"bX c #FFF7F8",
"nX c #F9FFFF",
"mX c #FDFFFF",
"MX c #FEFFFF",
"NX c white",
/* pixels */
"                                                                                                    ",
"                                                                                                    ",
"                                                                                                    ",
"                                                                                                    ",
"                                                                                                    ",
"                                                                                                    ",
"                                                                                                    ",
"                                                                                                    ",
"                                                                                                    ",
"                            . . . . . .                     . . . . . . .                           ",
"                            # # # # # # #                   # # # # # # #                           ",
"                      . . v  .{  .{  . .F . .           . s { {  .{  . .Y . .                       ",
"                      . . B /./././.G.).P . .         . . s I.].].].].}.' . .                       ",
"                      b A #.-X:X3X3X>X;X@XH B         z H ^ I.Y.Y.Y.Y.].*.J H ;                     ",
"                  . . ` j.=XdXzXNXNXcXhX<X/.+.# . . . U }.Y.Y.Y.Y.Y.Y.Y.Y.].l.2 .                   ",
"                  w t $.#X1XzXjXaXaXeXwX&X/.*.u e e 0 / ].Y.Y.Y.Y.Y.Y.Y.Y.Y.x.d 0                   ",
"              . 6 <.M.9XpXkXNXsX+XoX.X.X XY.Y.M.M.M.M.N.Y.Y.Y.Y.Y.Y.Y.Y.Y.Y.F.6.4.g . .             ",
"              . 6 x.Y.9XhXxXbXuXOXG.J.J.Y.Y.Y.Y.].Y.Y.Y.Y.Y.Y.Y.Y.Y.Y.Y.Y.Y.G.q.q.g . .             ",
"              . 6 6.!.tXnXrX%X$X XY.J.Y.Y.Y.Y.Y.J.Y.Y.Y.Y.Y.Y.Y.Y.Y.Y.Y.A.q.g.q.q.j . .             ",
"              . 1 l.Y.yXNX7XG.G.J.Y.Y.Y.Y.Y.Y.Y.Y.Y.Y.Y.Y.Y.Y.Y.Y.Y.Y.L.A.q.q.q.q.j . .             ",
"              . 6 l. XrXvX5XG.Y.J.Y.Y.Y.Y.Y.Y.Y.Y.Y.Y.Y.Y.Y.Y.Y.Y.Y.A.m.g.q.q.q.q.j . .             ",
"              . 6 z. X8XgX4XJ.Y.Y.Y.Y.Y.Y.Y.Y.Y.Y.Y.Y.Y.Y.Y.Y.Y.Y.Y.g.q.0.q.q.q.q.j . .             ",
"              . 6 6. X,XqX=XY.Y.Y.Y.Y.Y.Y.Y.Y.Y.Y.Y.Y.Y.Y.Y.Y.Y.L.L.m.q.q.q.q.q.q.j . .             ",
"              . 6 x.J.Y. XY.Y.Y.Y.Y.Y.Y.Y.Y.Y.Y.Y.Y.Y.Y.Y.Y.Y.Y.L.L.m.q.q.q.0.q.q.j . .             ",
"              . 6 *.v.A.Y.Y.Y.Y.Y.Y.Y.Y.Y.Y.Y.Y.Y.Y.Y.Y.Y.Y.Y.Y.L.G.m.q.q.q.0.3.>.g . .             ",
"                  7 8 o.Y.Y.Y.Y.Y.Y.Y.Y.Y.Y.Y.Y.Y.Y.Y.Y.Y.Y.Y.Y.m.q.q.0.q.q.>.s 7                   ",
"                  . . [ ].Y.Y.Y.Y.Y.Y.Y.Y.Y.Y.Y.Y.Y.Y.Y.Y.Y.Y.J.g.q.q.q.q.t.:.2 .                   ",
"                  . # { ].Y.Y.Y.Y.Y.Y.Y.Y.Y.Y.Y.Y.Y.Y.Y.Y.A.m.m.q.q.q.q.q.q.;.; .                   ",
"                  . # { }.J.Y.Y.Y.Y.Y.Y.Y.Y.Y.Y.Y.Y.Y.G.Y.A.q.q.q.q.q.q.q.t.>.2 .                   ",
"                  . . I ( &.Y.Y.Y.Y.Y.Y.Y.Y.Y.Y.Y.Y.Y.A.A.g.q.q.q.q.q.q.:.Q R > .                   ",
"                      . . C ].Y.Y.Y.Y.Y.Y.Y.Y.Y.Y.Y.Y.N.q.q.q.q.q.q.q.t.! # .                       ",
"                      . . N k.l.Y.Y.Y.Y.Y.Y.Y.Y.Y.A.G.g.q.q.q.q.q.q.2.:.E . .                       ",
"                            , k M.Y.Y.Y.Y.Y.Y.Y.Y.g.q.a.q.q.q.q.q.q.S ; ;                           ",
"                            . 8 v.N.Y.Y.Y.Y.Y.Y.Y.a.q.0.q.q.q.q.q.q.x . .                           ",
"                                l v -.J.Y.Y.A.g.g.q.q.q.q.q.q.3.B d q                               ",
"                                . . o.}.].J.A.q.q.q.q.q.q.q.t.3.3 .                                 ",
"                                . $ K ^ O.V.g.q.q.q.q.q.q.:.T L 3 .                                 ",
"                                    . . S p.q.q.q.q.q.q.t.) # .                                     ",
"                                    . . V _ %.0.q.q.q.>._ Q . .                                     ",
"                                        & & k 5.q.q.t.D & =                                         ",
"                                          . w 3.7.7.7.C . .                                         ",
"                                              r r r i 0                                             ",
"                                              . . . .                                               ",
"                                                . . .                                               ",
"                                                                                                    ",
"                                                                                                    ",
"                                                                                                    ",
"                                                                                                    ",
"                                                                                                    "
};
