/* XPM */
static char *_477c18a5a2a413faef9b1646d5f4d30PUL0RBsIitn59dTd[] = {
/* columns rows colors chars-per-pixel */
"50 50 13 1 ",
"  c None",
". c black",
"X c #141728",
"o c #44001B",
"O c #790C25",
"+ c #37435C",
"@ c #AA222B",
"# c #AF7F60",
"$ c #B29547",
"% c #E5D972",
"& c #63788E",
"* c #E4C094",
"= c #DCD0B8",
/* pixels */
"                                                  ",
"                                                  ",
"                                                  ",
"                                                  ",
"                                                  ",
"                                                  ",
"                                                  ",
"                                                  ",
"                                                  ",
"                      %%%%%                       ",
"                     %$%%%%%                      ",
"                     $%$%##%                      ",
"                     $$%.#.%                      ",
"                     $#%***                       ",
"                     o#****                       ",
"                    ooo#**o   .....&              ",
"                   XXoo##*O& .......&             ",
"                  ooXoOo##Oo&.......&             ",
"                 oooOXoOo#oO+.XXXX+.&             ",
"                 ooOOXXoOOOo&o..X...&             ",
"                ooOOXXXXoooX+ooo#...&             ",
"                ooO XXXXXXX+oooo#...&             ",
"                oOO  XXX+++  ...X...+             ",
"              ..oO  .XX++&&  .XXXX+.&             ",
"               .##.. XX+&&+  .......+             ",
"                #..  OoOOOO  .......+             ",
"                ...= ooOoOO   .....+              ",
"                . ===XoOoO++                      ",
"               .   ===oooO+&&                     ",
"                   +===OoO++&&                    ",
"                  OOX===ooX++OO                   ",
"                 O@OXX===OXXoO@                   ",
"                 OOoo o=== oXOO                   ",
"                 +XX  o ===XX+                    ",
"                OoX   o o===+                     ",
"               Ooo        ===                     ",
"               oo        oo===                    ",
"              Oo         oO ===                   ",
"             Ooo         ooO ===                  ",
"                                                  ",
"                                                  ",
"                                                  ",
"                                                  ",
"                                                  ",
"                                                  ",
"                                                  ",
"                                                  ",
"                                                  ",
"                                                  ",
"                                                  "
};
