/* XPM */
static char *result[] = {
/* columns rows colors chars-per-pixel */
"50 50 21 1 ",
"  c #23150B",
". c #2A190D",
"X c #332B11",
"o c #3E3415",
"O c #442A0C",
"+ c #52330F",
"@ c #413529",
"# c #683F20",
"$ c #3A7124",
"% c #4E4031",
"& c #B26A1F",
"* c #865129",
"= c #826C2B",
"- c #9C8334",
"; c #CE8025",
": c #EAA330",
"> c #A78665",
", c #C1A643",
"< c #C4A17A",
"1 c #E3C59C",
"2 c None",
/* pixels */
"22222222222222222................22222222222222222",
"22222222222222222................22222222222222222",
"22222222222222222................22222222222222222",
"2222222222222....###**********###....2222222222222",
"2222222222222....###**********###....2222222222222",
"2222222222222....###**********###....2222222222222",
"2222222222222....################....2222222222222",
"2222222222222....################....2222222222222",
"2222222222222....################....2222222222222",
"2222222222222....###>>>>>>>>>>###....2222222222222",
"2222222222222....###>>>>>>>>>>###....2222222222222",
"2222222222222....###>>>>>>>>>>###....2222222222222",
"2222222222222%%%%<<<$$$<<<<$$$<<<%%%%2222222222222",
"2222222222222%%%%<<<$$$<<<<$$$<<<%%%%2222222222222",
"2222222222222%%%%<<<$$$<<<<$$$<<<%%%%2222222222222",
"2222222222222%%%%<<<$$$<<<<$$$<<<%%%%2222222222222",
"2222222222+++%%%%111<<<1111<<<111%%%%++++++2222222",
"2222222222+++%%%%111<<<1111<<<111%%%%++++++2222222",
"2222222222+++%%%%111<<<1111<<<111%%%%++++++2222222",
"2222222+++:::&&&&@@@<<<>>>><<<@@@&&&&::::::++++222",
"2222222+++:::&&&&@@@<<<>>>><<<@@@&&&&::::::++++222",
"2222222+++:::&&&&@@@<<<>>>><<<@@@&&&&::::::++++222",
"222++++:::;;;;;;;&&&@@@@@@@@@@&&&;;;;;;;;;;;;;;+++",
"222++++:::;;;;;;;&&&@@@@@@@@@@&&&;;;;;;;;;;;;;;+++",
"222++++:::;;;;;;;&&&@@@@@@@@@@&&&;;;;;;;;;;;;;;+++",
"%%%;;;;&&&&&&;;;;;;;&&&OOOO&&&;;;;;;;&&&;;;;;;;%%%",
"%%%;;;;&&&&&&;;;;;;;&&&OOOO&&&;;;;;;;&&&;;;;;;;%%%",
"%%%;;;;&&&&&&;;;;;;;&&&OOOO&&&;;;;;;;&&&;;;;;;;%%%",
"%%%;;;;;;;@@@&&&&;;;;;;++++;;;;;;&&&&@@@&&&;;;;%%%",
"%%%;;;;;;;@@@&&&&;;;;;;++++;;;;;;&&&&@@@&&&;;;;%%%",
"%%%;;;;;;;@@@&&&&;;;;;;++++;;;;;;&&&&@@@&&&;;;;%%%",
"%%%<<<<111111%%%%;;;::::::::::;;;&&&&@@@>>><<<<%%%",
"%%%<<<<111111%%%%;;;::::::::::;;;&&&&@@@>>><<<<%%%",
"%%%<<<<111111%%%%;;;::::::::::;;;&&&&@@@>>><<<<%%%",
"%%%<<<<<<<111%%%%;;;::::::::::;;;&&&&@@@>>>%%%%222",
"%%%<<<<<<<111%%%%;;;::::::::::;;;&&&&@@@>>>%%%%222",
"%%%<<<<<<<111%%%%;;;::::::::::;;;&&&&@@@>>>%%%%222",
"222%%%%%%%%%%====------==============@@@%%%2222222",
"222%%%%%%%%%%====------==============@@@%%%2222222",
"222%%%%%%%%%%====------==============@@@%%%2222222",
"222%%%%%%%%%%====------==============@@@%%%2222222",
"2222222222XXX----,,,===XXXX==========ooo2222222222",
"2222222222XXX----,,,===XXXX==========ooo2222222222",
"2222222222XXX----,,,===XXXX==========ooo2222222222",
"2222222222...####***###....          2222222222222",
"2222222222...####***###....          2222222222222",
"2222222222...####***###....          2222222222222",
"2222222222222..........222222222222222222222222222",
"2222222222222..........222222222222222222222222222",
"2222222222222..........222222222222222222222222222"
};
