/* XPM */
static char *d732a3e5c2964daad4a8330a448855beohoyZGa1R0hwNIEh[] = {
/* columns rows colors chars-per-pixel */
"50 50 186 2 ",
"   c #2B140E",
".  c #33140F",
"X  c #3C160E",
"o  c #251314",
"O  c #2B1514",
"+  c #2E1A17",
"@  c #221619",
"#  c #2A1718",
"$  c #221A1D",
"%  c #2C1B1B",
"&  c #341612",
"*  c #3B1711",
"=  c #351915",
"-  c #3C1912",
";  c #331D1A",
":  c #391F19",
">  c #35201D",
",  c #3C211B",
"<  c #45170B",
"1  c #451A0E",
"2  c #4D1B0D",
"3  c #541C0D",
"4  c #5D1E0C",
"5  c #431A12",
"6  c #4B1C11",
"7  c #531F11",
"8  c #611B06",
"9  c #6C1E04",
"0  c #641F0B",
"q  c #691F0A",
"w  c #741F03",
"e  c #5D210E",
"r  c #452017",
"t  c #4A2217",
"y  c #44241B",
"u  c #4B2419",
"i  c #4D291D",
"p  c #522215",
"a  c #5C2514",
"s  c #5C2817",
"d  c #522719",
"f  c #552C1E",
"g  c #5A2C1C",
"h  c #5D301F",
"j  c #64210C",
"k  c #6B220B",
"l  c #742206",
"z  c #7C2305",
"x  c #74230A",
"c  c #7B2409",
"v  c #74290E",
"b  c #7E2A0D",
"n  c #622512",
"m  c #682611",
"M  c #652A16",
"N  c #6C2C15",
"B  c #642C19",
"V  c #6A2E18",
"C  c #732C13",
"Z  c #7A2F14",
"A  c #6D3217",
"S  c #65321E",
"D  c #6B331C",
"F  c #753117",
"G  c #7E3114",
"H  c #73351C",
"J  c #7A361A",
"K  c #77391D",
"L  c #7E391C",
"P  c #4E2C20",
"I  c #532E20",
"U  c #573021",
"Y  c #5C3221",
"T  c #633421",
"R  c #693721",
"E  c #6D3922",
"W  c #733A21",
"Q  c #7D3E22",
"!  c #832505",
"~  c #8C2604",
"^  c #872A07",
"/  c #8D2905",
"(  c #812609",
")  c #862B0B",
"_  c #8C2C0A",
"`  c #922703",
"'  c #992702",
"]  c #942A04",
"[  c #9C2A02",
"{  c #942E09",
"}  c #9F3106",
"|  c #96330C",
" . c #9C340C",
".. c #97380E",
"X. c #9B390E",
"o. c #833413",
"O. c #8A3414",
"+. c #853817",
"@. c #8A3915",
"#. c #833619",
"$. c #833B1D",
"%. c #8B3C1B",
"&. c #953712",
"*. c #943914",
"=. c #9B3B14",
"-. c #953E1A",
";. c #9C3E18",
":. c #A42C02",
">. c #A92D02",
",. c #A43105",
"<. c #AB3205",
"1. c #A33409",
"2. c #AC3609",
"3. c #A33A0E",
"4. c #AC3A0C",
"5. c #B23406",
"6. c #B23807",
"7. c #B33708",
"8. c #B43B0C",
"9. c #BA3C0B",
"0. c #A33E13",
"q. c #AC3F12",
"w. c #B23E11",
"e. c #833E20",
"r. c #C03F0D",
"t. c #8E401E",
"y. c #95411B",
"u. c #9B421B",
"i. c #9E4119",
"p. c #9E431C",
"a. c #BB410E",
"s. c #A74217",
"d. c #A64317",
"f. c #A54417",
"g. c #AC4115",
"h. c #A3431A",
"j. c #A4471C",
"k. c #AA451A",
"l. c #AF4618",
"z. c #A64A1E",
"x. c #AA491B",
"c. c #AB481C",
"v. c #AA4A1E",
"b. c #B04111",
"n. c #B74210",
"m. c #B24314",
"M. c #B74616",
"N. c #BC4211",
"B. c #B84511",
"V. c #B84515",
"C. c #B04518",
"Z. c #B24618",
"A. c #B3481A",
"S. c #B64B1C",
"D. c #B74F1D",
"F. c #BB4918",
"G. c #B94C1B",
"H. c #BE4C1A",
"J. c #BC511E",
"K. c #854122",
"L. c #8B4221",
"P. c #964521",
"I. c #994620",
"U. c #964822",
"Y. c #9D4B24",
"T. c #A24D24",
"R. c #AB4F23",
"E. c #B04F22",
"W. c #AD5022",
"Q. c #AD5224",
"!. c #B35123",
"~. c #B65324",
"^. c #BF5422",
"/. c #C3420F",
"(. c #C34713",
"). c #C44611",
"_. c #C54A14",
"`. c #C74A15",
"'. c #CB4C16",
"]. c #C34F1B",
"[. c #C2511E",
"{. c #CD541C",
"}. c #CB581F",
"|. c #C25420",
" X c #C35A25",
".X c #CA5921",
/* pixels */
"'.n.B.`.).G.6 / ` / ` ' ` ^ / / ~ ) p ~.B.8._ ` 4.M.3.4.n.g.F J A.m.d.*.C.^.v.A.S.D.T., v.Z.Z.d.d.A.",
"<.:.:.:.:.[ 3 :.:.[ >.:.>.[ [ [ ` ' C H.<.:.:.:.:.<.:.[ <.<.) b 5.,.>.:.<.9.<.:.<.<.[.u ,.:.<.:.:.7.",
">.>.>.:.[ z 2 ' [ [ :.>.:.:./ [ ,.:.k 1.>.[ [ :.[ :.' ,.<.,.x 3 [ [ :.>.>.:.' } <.,.=.= ! [ [ >.:.:.",
":.>.:.[ :.` < ~ :.:.>.:.>.[ ' 1.1.1.C / ,.] ! ] ' <.:.:.<.>.l w :.:.[ >.>.>.] ] ,.,./ 1 ` :.:.:.>.:.",
">.>.>.[ >.[ 4 <.<.>.:.:.9.7.:.[ [ `.%.` :.z / >.:.:.:.>.[ :.c z <.[ :.>.>.>.' :.] ] / 5 :.:.[ >.>.:.",
"k q q k q 4 : p.;.;.+.*.v.v.z.i.y.W.Y q 8 4 c c c l x c l c 6 4 ! ! _ ! ! c x c c c j o x z c ( ! ( ",
"5 0 j q 0 0 k x x v x e f R.R.k.j.T.v.*.o.i.i.p.; t @.@.O.o.%.O.c x O.-.I., W $.$.$.K L J A J L $.i ",
"! [ ' :.' :.>.>.>.[ >.] $.`.<.:.:.7.9.>.:.<.<.<.* 2 1.>.:.:.5.>.:.:.>.<.].E .X6.5.<.9.`.5.:.<.6.7.b ",
"~ :.} [ ] :.:.>.:.[ :.! C 1.,.1.' [ >.>.>.:.[ ` o 4 ,.<.} [ >.>.:.:.[ :.2.V q.,.1.[ :.>.>.>.:.[ :.2 ",
"&.[ 2.} ` :.>.>.:.:.:.9 3 :.,.:.] :.:.>.:.[ :.' X 0 :.<.:.[ >.>.>.:.[ :.] 6 ] <.,.] ] >.:.:.:.:.' q ",
"^.6.:.[ :.7.<.:.:.:.>._ 3 [ ` [ ' [ >.:.>.[ :.:.- q :.[ >.:.:.>.,.:.~ [ [ 6 ' ' ' [ ' :.>.>.[ [ :.l ",
"Y.D.A.g.d.H.V...=.g.g.-.5 x c ! c c ( ! ! ( ! c O 5 ! ! z c ! / ~ ~ ! c c & ( ^ ` ] ~ ' ' ' { ' [ 0 ",
"p a a a a p : p a a a p 1 6 2 6 6 5 o & * * * * = - - 5 O . O i D M 7 6 s s B C F F s O - 5 5 5 5 & ",
":.:.:.[ :.' 3 ] ` :.[ ] >.:.:.[ :.:.q ! ' [ :.' :.:.:.:.! [ x E.9.4.:.[ <.7.2.,.<.2.&.= ] [ ' [ ' :.",
">.>.:.[ :.` 0 [ [ ' { [ :.>.:.[ [ :.k ] >.:.>.:.:.:.<.' ] :.c h.>.:.:.>.:.:.:.[ ,.,.{ - ' :.[ :.>.>.",
":.>.:.:.[ ! p [ <.,.] ] >.>.>.:.:.` 3 / ,.<.[ [ <.:.>.[ :.:.c ! >.:./ ] ] ,.[ :.<.,.! O ~ [ :.:.>.:.",
">.:.:.:.:./ B B.,.,.[ :.<.>.>.:.:.:.3 } :.1.[ :.<.>.:.:.[ <.-.! :.` z [ :.:.:.>.:.:.~ o ~ :.[ >.>.<.",
"a.2.4.9.8.g.H .Xa.8.8.B.'.4.} 8.8.n.C 1.2.5.>.4.9.:.[ :.2./.I.c ' l ! :.:.[ ` [ [ ' z * 4.7.6.,.>.9.",
"f I f U U I % U U U U P i i y i i P % i g g d f g V N N #.$.T t 1 1 a B p & - 6 5 5 & # H L J J J H ",
"Q v.j.;.-.z.f.O.@.i.i.%.5 k x l x q c x x c w k o C 3.4.1.3.w.1._ ] 2.n.R.= ( ^ ` / ! ' ` ` ] ~ ' 6 ",
"~.9.<.:.>.9.5.:.:.<.<.[ k ' ` [ ' [ >.>.>.[ :.:.& j 1.>.[ :.:.:.>.>.:.<.c.r [ ] ' [ [ >.:.>.[ [ :.q ",
"*.} <.} ] :.:.>.>.[ [ l j :.,.[ ] :.:.>.:.:.:.] * z ,.>.[ [ ,.] ' ] [ >._ 5 [ ,.:.] ' :.>.>.:.:.' 4 ",
"b :.,.[ ` :.>.>.[ :.:.~ G } ,.,.] [ >.>.>.:.[ ~ o ! >.>.>.:.>.[ [ z ] :.z d 4.1.1.[ :.>.:.>.:.[ ' 1 ",
"! [ ] [ ' :.>.>.:.[ >.] i.).<.:.:.7.7.>.:.>.>.:.* ! ' :.>.[ :.>.>.~ z :.! f {.7.<.<.8.).<.:.5.<.7.k ",
"3 x c c c c c c c c c q S W.x.d.i.z.v.*.@.h.h.h.% & 3 3 3 2 3 p 3 6 X X - $ Q K.$.$.Q L.J A L L $.y ",
"%.%.%.-.%.%.% s H F V A H C e N J $.T T t.#.v j N J D F B   t > R D D s S W D D W W E % T H W D D H ",
"7.>.>.<.7.<.5 3.<.<.:.<.7.>.[ :.2.9.Q.R.9.<.>.[ >.5.<.:.<.[  .N 9.6.6.:.<./.a.7.7.7..XJ 2.7.7.<.<.9.",
",.:.>.:.:.! O { 1.<.[ :.:.[ >.:.:.>.=.=.<.[ :.:.>.>.:.[ ,.1.] < [ [ :.>.>.<.:.[ ,.,.8.B ! :.[ >.:.<.",
":.>.:.:.[ ` * ~ ,.<.:.[ ,.] ` ~ :.>.c c >.:.[ <.:.:.:.:.<.<.~ 3 ] :.:.>.>.>.] ] :.<.[ e ! :.:.:.>.:.",
":.>.:.[ :.[ 5 / :.:.>.:.:.[ :.z ~ :.c z :.` [ <.:.:.:.>.:.:.` q :.:.' :.>.:.[ [ ] ] [ e ' :.' :.>.:.",
"~ ~ / ^ ~ ! O z ` ` ' ~ ' [ ' ! 9 ` k q ~ w ] ' ' ' ~ ` ` ~ c 3 [ ' ' [ [ [ / ] ' / / 2 / ' ` ' [ [ ",
"5 g g g d f i d a B B u O 5 6 6 * * * * * - 5 5 + r +.@.O.o.+.F b x O.&.p.u 3 3 4 j 4 6 4 0 n 0 0 6 ",
" XF.9.w.w.{.9.1.3.w.w.=.# ! ] ' [ { ' :.[ [ ' :.j a 6.<.>.:.6.<.:.:.<.<.'.S ~ ^ / ] ` ' :.:.:.[ >.c ",
"|.2.,.[ :.>.>.:.:.:.:.w o ' ' ] ] ' :.:.>.[ [ :.q 3 <.1.,.[ :.[ :.>.:.[ 9.B ` :.[ ,.] ` [ >.[ [ :.! ",
"{ 1.2.:.` :.>.>.:.:.[ 9 O { 1.<.[ ] :.>.>.:.:.[ 3 3 [ <.:.[ >.[ ` ~ ] :.[ e _ ,.<.[ [ :.[ :.:.:.' 8 ",
"' [ ' ] ' >.:.>.:.[ :.! , C.:.,.' :.<.>.>.:.' :.2 3 :.:.>.:.:.:.,.` z [ [ n V.,.,.[ :.7.>.>.:.[ :.q ",
"! ] ' :.` [ >.:.:.[ >.! , .X9.7.4.9.`.<.,.<.4.9.v - / ~ ` ` ~ ' ' ` l w ~ p  Xb.| 8.w.{.7.,.4.8.9.O.",
"V G o.Z Z Z 7 3 e 4 0 6 + K $.#.#.J K K.t.%.+.%.h : r t t u = + r , , + , % I R Y R U I T S R R R I ",
"N.4.3.8.8.m.7 / ' / ] ' ] ~ / ] ~ ^ a !.g.3.` / 1.w.1.1.4.4.G J C.g.d.| g.[.d.g.m.Z.Q., 0.q.M.0.3.M.",
"<.:.>.:.:.] 2 :.:.[ :.:.>.:.[ ' ` [ v A.>.[ >.>.:.:.:.[ >.2.) k >.:.:.:.:.5.>.:.:.<.].y [ :.:.:.:.<.",
":.>.:.:.[ ! < ` :.:.:.>.>.[ ] :.<.' C { >.:.] [ ] >.' :.2.[ x 3 [ [ :.:.>.,.` [ ,.,.| = z [ :.:.>.>.",
"[ <.:.[ :.' < / [ [ >.>.>.:.[ } ,.4.+.! :.` z [ [ :.:.>.>.>.z w :.[ :.>.>.>.] { [ ,.` 5 ` :.[ :.>.>.",
":.:.:.[ :.:.0 6.2.5.:.>.r.a.2.} } `.t./ [ z ~ >.>.:.:.:.[ :.c c >.:.:.>.>.:.' :.[ ] ] 5 [ >.[ >.:.>.",
"6 6 6 6 6 5 % Q e.L D H e.U.I.P.L.I.T n e n v v e 3 7 3 3 3 * * 0 q j 0 j q j k k m 7 @ 4 j k k k j ",
"W -.@.x j b *.+.O.@.@.F : k.q.m.X.X.F.A.d.m.M.J.W O q q q q 0 q q k 3 < 4 @ K.I.p.p.y.T.i.+.@.-.u.$.",
"E.9.,.>.:.>.>.<.:.>.<.3.5 [ :.:.>.:.5.5.:.:.:.a.L.4 :.' >.:.[ >.>.' z ' :.r ~.6.<.:.<.9.>.>.>.2.7.[ ",
"&.2.:.:.:.[ :.:.' ,.1.] & ! [ :.:.>.:.[ ] ,.2.} N 4 :.>.:.:.>.[ [ ! / :.' 5 *.,.<.} ' :.:.>.:.:.[ 9 ",
"c :.:.! / { :.:.:.>.,.l . ] :.[ :.>.>.:.{ ] [ :.0 e [ 2.1.[ :.' ' [ [ :.,.r ! ,.:.] ] :.>.>.[ :.:.~ ",
"c >.~ w >.:.:.[ >.:.[ ! < [ :.[ >.:.>.[ [ :.] [ 4 m 5.,.:.[ :.:.:.:.,.:.(.f ! ] ' [ [ :.:.>.:.' >.' ",
"q ~ 9 ~ :.:.' ` ' ' ` ! + q w x v w c q q w w m = V 9.N.w.8.).9.} [ 9.a..Xy k / ] ] / ` [ ' ' ] ' c "
};
