/* XPM */
static char *result[] = {
/* columns rows colors chars-per-pixel */
"50 50 6 1 ",
"  c #399823",
". c #41AC28",
"X c #5A8D40",
"o c #5C9041",
"O c #609744",
"+ c #649E47",
/* pixels */
"OOO+++XXXOOOOOOO+++OOO....+++OOOOOO.....OOOoooOOOO",
"OOO+++XXXOOOOOOO+++OOO....+++OOOOOO.....OOOoooOOOO",
"OOO+++XXXOOOOOOO+++OOO....+++OOOOOO.....OOOoooOOOO",
"OOOOOOOOOOOOOoooOOOOOO    OOOoooOOO     OOOOOOOOO+",
"OOOOOOOOOOOOOoooOOOOOO    OOOoooOOO     OOOOOOOOO+",
"OOOOOOOOOOOOOoooOOOOOO    OOOoooOOO     OOOOOOOOO+",
"oooOOO...OOOOOOO+++OOOXXXXOOOOOOOOOXXXXXOOO+++oooO",
"oooOOO...OOOOOOO+++OOOXXXXOOOOOOOOOXXXXXOOO+++oooO",
"oooOOO...OOOOOOO+++OOOXXXXOOOOOOOOOXXXXXOOO+++oooO",
"OOOOOO   OOOOooooooOOOOOOOOOO++++++OOOOOOOOOOOOOO.",
"OOOOOO   OOOOooooooOOOOOOOOOO++++++OOOOOOOOOOOOOO.",
"OOOOOO   OOOOooooooOOOOOOOOOO++++++OOOOOOOOOOOOOO.",
"OOOOOO   OOOOooooooOOOOOOOOOO++++++OOOOOOOOOOOOOO.",
"OOOOOOXXXOOOOOOOOOOoooooooOOOOOOoooOOOOOoooOOOOOO ",
"OOOOOOXXXOOOOOOOOOOoooooooOOOOOOoooOOOOOoooOOOOOO ",
"OOOOOOXXXOOOOOOOOOOoooooooOOOOOOoooOOOOOoooOOOOOO ",
"oooOOOOOO++++OOO...OOOOOOO+++OOOOOOOOOOOOOO...OOOX",
"oooOOOOOO++++OOO...OOOOOOO+++OOOOOOOOOOOOOO...OOOX",
"oooOOOOOO++++OOO...OOOOOOO+++OOOOOOOOOOOOOO...OOOX",
"OOO+++OOOOOOOOOO   +++OOOOOOOoooOOO+++++OOO   OOOO",
"OOO+++OOOOOOOOOO   +++OOOOOOOoooOOO+++++OOO   OOOO",
"OOO+++OOOOOOOOOO   +++OOOOOOOoooOOO+++++OOO   OOOO",
"OOOOOOoooOOOOOOOXXXOOOOOOOOOOOOO+++OOOOOOOOXXX+++O",
"OOOOOOoooOOOOOOOXXXOOOOOOOOOOOOO+++OOOOOOOOXXX+++O",
"OOOOOOoooOOOOOOOXXXOOOOOOOOOOOOO+++OOOOOOOOXXX+++O",
"OOOOOOoooOOOOOOOXXXOOOOOOOOOOOOO+++OOOOOOOOXXX+++O",
"OOO...OOOOOOOoooOOOOOOooooOOO...OOOOOOOOOOO+++OOOO",
"OOO...OOOOOOOoooOOOOOOooooOOO...OOOOOOOOOOO+++OOOO",
"OOO...OOOOOOOoooOOOOOOooooOOO...OOOOOOOOOOO+++OOOO",
"+++   OOO++++OOOOOO+++OOOOOOO   OOOoooooOOOOOOooo.",
"+++   OOO++++OOOOOO+++OOOOOOO   OOOoooooOOOOOOooo.",
"+++   OOO++++OOOOOO+++OOOOOOO   OOOoooooOOOOOOooo.",
"OOOXXXOOOOOOO...OOOoooOOOOOOOXXXOOOOOOOO+++OOO+++ ",
"OOOXXXOOOOOOO...OOOoooOOOOOOOXXXOOOOOOOO+++OOO+++ ",
"OOOXXXOOOOOOO...OOOoooOOOOOOOXXXOOOOOOOO+++OOO+++ ",
"OOOOOOOOOOOOO   OOOOOOOOOO+++OOOOOOoooooOOOOOOOOOX",
"OOOOOOOOOOOOO   OOOOOOOOOO+++OOOOOOoooooOOOOOOOOOX",
"OOOOOOOOOOOOO   OOOOOOOOOO+++OOOOOOoooooOOOOOOOOOX",
"OOOOOOOOOOOOO   OOOOOOOOOO+++OOOOOOoooooOOOOOOOOOX",
"OOOOOOOOOOOOO   OOOOOOOOOO+++OOOOOOoooooOOOOOOOOOX",
"OOOoooOOOOOOOXXXOOOOOOooooOOO...OOOOOOOOOOO+++OOOO",
"OOOoooOOOOOOOXXXOOOOOOooooOOO...OOOOOOOOOOO+++OOOO",
"OOOoooOOOOOOOXXXOOOOOOooooOOO...OOOOOOOOOOO+++OOOO",
"OOOOOO+++OOOOOOOOOO...++++OOO   OOO+++++...OOOOOOo",
"OOOOOO+++OOOOOOOOOO...++++OOO   OOO+++++...OOOOOOo",
"OOOOOO+++OOOOOOOOOO...++++OOO   OOO+++++...OOOOOOo",
"oooOOO...OOOOoooooo   OOOOOOOXXXOOOOOOOO   OOOoooO",
"oooOOO...OOOOoooooo   OOOOOOOXXXOOOOOOOO   OOOoooO",
"oooOOO...OOOOoooooo   OOOOOOOXXXOOOOOOOO   OOOoooO",
"+++OOO   OOOOOOOOOOXXXOOOO+++OOOOOOoooooXXX+++OOO+"
};
