/* XPM */
static char *_b5ab5973d0a4e52fe56aa4b792c1cb3RhFYTn6RYchrMX0A[] = {
/* columns rows colors chars-per-pixel */
"50 50 201 2 ",
"   c None",
".  c #645954",
"X  c #6C615C",
"o  c #73655F",
"O  c #73665F",
"+  c #736761",
"@  c #756760",
"#  c #746761",
"$  c #736861",
"%  c #756860",
"&  c #746861",
"*  c #756861",
"=  c #776860",
"-  c #776960",
";  c #766861",
":  c #756A64",
">  c #776B65",
",  c #756C65",
"<  c #796861",
"1  c #796A60",
"2  c #786A61",
"3  c #796A61",
"4  c #796B63",
"5  c #7D6861",
"6  c #7D6D61",
"7  c #7F6E61",
"8  c #736E69",
"9  c #74706B",
"0  c #74706C",
"q  c #747470",
"w  c #747571",
"e  c #737876",
"r  c #826861",
"t  c #846862",
"y  c #816F60",
"u  c #896863",
"i  c #847060",
"p  c #847061",
"a  c #847161",
"s  c #857161",
"d  c #867260",
"f  c #8A7461",
"g  c #8C7560",
"h  c #8F7760",
"j  c #937961",
"k  c #957A61",
"l  c #997C60",
"z  c #9D7E60",
"x  c #9E7F61",
"c  c #B26662",
"v  c #BF6764",
"b  c #C66764",
"n  c #D56764",
"m  c #E66664",
"M  c #FC6666",
"N  c #FE6666",
"B  c #FF6666",
"V  c #A48360",
"C  c #A78665",
"Z  c #AC8760",
"A  c #A1876C",
"S  c #BF9261",
"D  c #B79570",
"F  c #B39677",
"G  c #B59674",
"H  c #C89A66",
"J  c #CD9E68",
"K  c #DCA260",
"L  c #DEA460",
"P  c #D7A46A",
"I  c #DBA96F",
"U  c #D3A570",
"Y  c #E0A662",
"T  c #EEAD60",
"R  c #EDAD62",
"E  c #E7AF6C",
"W  c #F1AE60",
"Q  c #ECB26D",
"!  c #EEB46D",
"~  c #F3B060",
"^  c #FEB660",
"/  c #FFB760",
"(  c #FFB761",
")  c #F5B86F",
"_  c #FEBD6D",
"`  c #EDB775",
"'  c #E4B378",
"]  c #FFC173",
"[  c #FCC077",
"{  c #FEC178",
"}  c #FCC279",
"|  c #FEC47C",
" . c #6CAAB5",
".. c #6CB4C1",
"X. c #6CB6C4",
"o. c #6CBCCB",
"O. c #69BCCC",
"+. c #6BBFCE",
"@. c #71B4C2",
"#. c #30C2E0",
"$. c #3AC4E0",
"%. c #3EC6E2",
"&. c #5FC5CE",
"*. c #53C7DA",
"=. c #6BC5D6",
"-. c #6AC5D8",
";. c #6AC7D9",
":. c #6CCEDC",
">. c #73CED8",
",. c #79D3DF",
"<. c #40C6E1",
"1. c #4CC8E0",
"2. c #55CDE6",
"3. c #5DCFE6",
"4. c #61CFE3",
"5. c #69D2E7",
"6. c #60D0E8",
"7. c #64D2E8",
"8. c #67D4E9",
"9. c #69D3E8",
"0. c #69D3E9",
"q. c #69D4E9",
"w. c #9A9A9A",
"e. c #B39EA9",
"r. c #90ACB9",
"t. c #A2A2A2",
"y. c gray66",
"u. c #AFAFAF",
"i. c #A9A4B0",
"p. c #B7B7B6",
"a. c #AFCBB2",
"s. c #A9CDBA",
"d. c #DFCD9E",
"f. c #F8C483",
"g. c #FEC681",
"h. c #FFC883",
"j. c #FEC885",
"k. c #FEC886",
"l. c #FFCB87",
"z. c #FFCB89",
"x. c #FECB8B",
"c. c #F9CA8D",
"v. c #FECD8D",
"b. c #FFCD8D",
"n. c #FFCE8C",
"m. c #FFCE8D",
"M. c #FECD8E",
"N. c #FFCD8E",
"B. c #FECD8F",
"V. c #FECE8F",
"C. c #FFCE8F",
"Z. c #FFCF8F",
"A. c #E5CF9E",
"S. c #EACE9B",
"D. c #ECCD98",
"F. c #F6CE94",
"G. c #F9CE93",
"H. c #FACE92",
"J. c #FECE90",
"K. c #FECE91",
"L. c #FECF92",
"P. c #FFCF92",
"I. c #FECF93",
"U. c #FFD092",
"Y. c #FED095",
"T. c #FED197",
"R. c #FFD299",
"E. c #FED29A",
"W. c #FED39B",
"Q. c #FED39C",
"!. c #FED59F",
"~. c #FED6A1",
"^. c #FED7A3",
"/. c #F5D5AD",
"(. c #FED9A8",
"). c #FEDAAB",
"_. c #FEDBAD",
"`. c #FEDBAE",
"'. c #FEDDB1",
"]. c #FEDEB4",
"[. c #FEDEB5",
"{. c #FEE0B9",
"}. c #9ACFC7",
"|. c #93D1CE",
" X c #92D2D0",
".X c #A7CFC1",
"XX c #CECECE",
"oX c gray86",
"OX c #FFE3C0",
"+X c #FFE4C2",
"@X c #FFE9CC",
"#X c #FFE9CE",
"$X c #FFEBD1",
"%X c #FFEDD7",
"&X c #E1E1E1",
"*X c #E7E7E7",
"=X c #E9E9E9",
"-X c #F3EEE7",
";X c #FFF7EC",
":X c #FFF7ED",
">X c #F7F7F8",
/* pixels */
"                                                                                                    ",
"                                                                                                    ",
"                                                                                                    ",
"                                                                                                    ",
"                                                                                                    ",
"                                                                                                    ",
"                                                                                                    ",
"                                                                                                    ",
"                                                                                                    ",
"                                                                                                    ",
"                                                                                                    ",
"                                                                                                    ",
"                                                                                                    ",
"                                                                                                    ",
"                                                                                                    ",
"                                                                                                    ",
"                                                                                                    ",
"                                                                                                    ",
"                                                                                                    ",
"                                                                                                    ",
"                                                                                                    ",
"                                                                                                    ",
"                                                            5.5.5.5.5.                              ",
"                                                            0.q.q.q.8.8.                            ",
"                                                          ;.+.X.....r.i.e.                          ",
"                                                        0 e 9 , > > u c m B B B                     ",
"                                                      * * O * * * * $ $ t b B B B                   ",
"                                                    * * * * * * * * * * * 3 v B B                   ",
"                                                    * * * * * * * * * * * * 5 n B                   ",
"                                                  3 * * * * * * * * * * * * $ r     * * * * * *     ",
"                                              / T a + * * * * * * * * * * * * * * * * * * * * * *   ",
"                                            / / K 7 + * * * * * * * * * * * * * * * * * * * * * *   ",
"                                            / W j * a 3 $ 7 V a @ * * * * * * * * * * * * * * * *   ",
"                                            / L 3 f Y P P Q R a + * * * * * * * * * * * * * * * *   ",
"                                              ~ H I h.n.V.V.Q a @ * * * * * * * * * * * * * * *     ",
"                                              / _ V.J.Y.Y.V.! a + * * * * * * * * * * * * *         ",
"                                              _ c.V.V.(.[.b.) h + * * * * * * * * * * * * *         ",
"                                                J.I.'.).OXJ.{ V + * * 7 * * * * * * * * * * *       ",
"                                          0.3.>.A.J.[.$X%XI.x.J * @ C k $ * * * * * * * * * *       ",
"                                      9 o.7.<.%.}.G.V.Q.`.I.J.f.D F ` l + * * * * * * * * * *       ",
"                                  * @ w =.2.#.$.3.a.J.V.V.J.J.J.V.V.[ z + * * * *     * * *         ",
"                        w.p.=X  + * @ w ;.:.&.1.4.*.A.V.J.J.J.J.V.J.| Z + * * * *                   ",
"                      XXu.*X-X/.G 3 o 8 O.|.D..X|.s.  V.J.J.J.^.Q.J.x.H * * * *                     ",
"                      &Xt.>X:XR.c.A . X  .,.S.H.F.J.j.g.V.J.J.@X$X[.I.' 3 * * *                     ",
"                      oXy.  :XR.                V.J.g.{ k.J.J.OX(.Q.      *                         ",
"                                                            V.`.Q.                                  ",
"                                                                                                    ",
"                                                                                                    ",
"                                                                                                    ",
"                                                                                                    "
};
