/* XPM */
static char *_74a4f8708d249d6ff341368e77da6085l1rOXAqectZnCI1[] = {
/* columns rows colors chars-per-pixel */
"50 50 130 2 ",
"   c None",
".  c #010000",
"X  c #0B0000",
"o  c #0C0C0C",
"O  c #130000",
"+  c #1C0101",
"@  c #131313",
"#  c #1A1313",
"$  c #1D1D1D",
"%  c #230202",
"&  c #2C0303",
"*  c #340101",
"=  c #3D0707",
"-  c #330D0D",
";  c #2C1F1F",
":  c #321E1E",
">  c #3E1A1A",
",  c #1E2121",
"<  c #212121",
"1  c #470000",
"2  c #4C0000",
"3  c #430808",
"4  c #4E0909",
"5  c #5C0B0B",
"6  c #401717",
"7  c #4E1616",
"8  c #431A1A",
"9  c #4D1919",
"0  c #561515",
"q  c #5C1414",
"w  c #521818",
"e  c #630000",
"r  c #6B0000",
"t  c #610C0C",
"y  c #7E0000",
"u  c #7D0F0F",
"i  c #6B1212",
"p  c #701212",
"a  c #7E1010",
"s  c #840000",
"d  c #8F0000",
"f  c #810E0E",
"g  c #8D0D0D",
"h  c #960000",
"j  c #9B0000",
"k  c #910D0D",
"l  c #9C0B0B",
"z  c #9C1313",
"x  c #A30000",
"c  c #AC0000",
"v  c #A50B0B",
"b  c #B30202",
"n  c #B90000",
"m  c #BE0000",
"M  c #BF0000",
"N  c #B90505",
"B  c #BB0505",
"V  c #BD0404",
"C  c #BC0505",
"Z  c #BE0404",
"A  c #C00000",
"S  c #C10000",
"D  c #C20000",
"F  c #C30000",
"G  c #C40000",
"H  c #C50000",
"J  c #C50101",
"K  c #C60000",
"L  c #C70000",
"P  c #C00404",
"I  c #C80000",
"U  c #C90000",
"Y  c #CA0000",
"T  c #CB0000",
"R  c #C90202",
"E  c #CA0202",
"W  c #CC0000",
"Q  c #CD0101",
"!  c #CE0000",
"~  c #CF0000",
"^  c #CE0101",
"/  c #CC0202",
"(  c #CA0E0E",
")  c #D10000",
"_  c #D00101",
"`  c #D10101",
"'  c #D20000",
"]  c #D30000",
"[  c #D40000",
"{  c #D50000",
"}  c #D50101",
"|  c #D60000",
" . c #D70000",
".. c #D80000",
"X. c #D90000",
"o. c #DA0000",
"O. c #D60808",
"+. c #D50B0B",
"@. c #D70A0A",
"#. c #D70B0B",
"$. c #D70D0D",
"%. c #D40E0E",
"&. c #D70E0E",
"*. c #D70F0F",
"=. c #D80E0E",
"-. c #DA0F0F",
";. c #C71111",
":. c #C81818",
">. c #CA1818",
",. c #CB1818",
"<. c #CB1919",
"1. c #CE1919",
"2. c #D81212",
"3. c #D91212",
"4. c #D81313",
"5. c #D91313",
"6. c #DA1212",
"7. c #D41919",
"8. c #D41A1A",
"9. c #D61A1A",
"0. c #D81A1A",
"q. c #D91A1A",
"w. c #D91B1B",
"e. c #DA1A1A",
"r. c #DA1B1B",
"t. c #DB1B1B",
"y. c #DC1A1A",
"u. c #DD1A1A",
"i. c #DD1B1B",
"p. c #DE1B1B",
/* pixels */
"                        . . . . . . .                         . . . . . . .                         ",
"                        . . . . . . .                         . . . . . . .                         ",
"                        . . . . . . .                         . . . . . . .                         ",
"                        . . X . X . .                         . . . . . . .                         ",
"                . . . 4 z z z z z z z = . . .         . . . o @ @ # @ @ @ # o . . .                 ",
"                . . . 5 y.y.y.y.y.y.w.3 . . .         . . . o $ $ $ , $ $ < o . . .                 ",
"                . . . 5 w.q.w.q.w.w.w.3 . . .         . . . . $ $ $ $ $ $ $ o . . .                 ",
"                . . . 5 y.q.w.w.w.w.7.3 . . .         . . . . $ $ $ $ $ $ $ o . . .                 ",
"        . . . * a f a v O.%.O.%.O.%.%.l a a a % . . . @ @ @ @ $ , ; $ $ , < $ o @ o o . . .         ",
"        . . . = w.y.y.2.} }  . . .}  .2.i.t.<.& . . . $ $ $ $ , < < , , < < < $ $ $ o . . .         ",
"        . . . = 7.w.w.=.} } } }  .}  .*.w.w.>.& . . . $ $ $ $ < < < < < < < $ $ $ $ o . . .         ",
"        . . . = 7.w.w.*.} } } } } }  .q.w.w.>.& . . o # $ $ $ < < < < < < < $ $ $ $ o . . .         ",
"      % q t t f %.%.%.O. . .} } } } } O.%.%.( - o o @ $ $ < $ < < < < < < < < $ $ $ @ o o o .       ",
". . . % >.y.t.2. . .} } } } } } } } }  .}  .E 6 $ $ $ < < < < < < < < < < < < < ; , , $ $ $ o . . . ",
". . . % >.w.w.2. .} } } } } } } } } } } }  .D > $ $ , < < < < < < < < < < < < < < < $ $ $ $ o . . . ",
". . . % :.w.w.2.} } } } } } } } } } } } }  .J > $ $ $ < < < < < < < < < < < < < < , $ $ $ $ . . . . ",
". . . % ;.*.*.%.} } } } } } } } } } } } }  .E i 0 0 7 < < < < < < < < < < < < < < < $ $ $ $ . . . . ",
". . . % D  . .} } } } } } } } } } } } } } }  .} } } N : < < < < < < < < < < < < < < $ $ $ $ o . . . ",
". . . % J  .} } } } } } } } } } } } } } } } }  .}  .N : < < < < < < < < < < < < , , ; $ $ $ o . . . ",
". . . % D  .} } } } } } } } } } } } } } } } }  .}  .V : < < < < < < < < < < < < < , $ $ $ $ . . . . ",
". . . % m } Q } } } } } } } } } } } } } } } } N N b l : < < < < < < < < < < < < < < $ $ $ $ . . . . ",
". . . % b D D J } } } } } } } } } } } } }  .E 9 < ; ; < < < < < < < < < < < < < < < $ $ $ $ o . . . ",
". . . % c D m J } } } } } } } } } } } } }  .J 8 < < < < < < < < < < < < < < < < < < $ $ $ $ . . . . ",
". . . + b D m D } } } } } } } } } } } } } } E 6 , < < < < < < < < < < < < < < < < < , $ $ $ o . . . ",
". . . % j c c b } } } } } } } } } } } } }  .E w : : < < < < < < < < < < < < , , < $ $ $ $ $ o . . . ",
"        + + + 2 m D m E } } } } } } } } } } } V N V v : < < < < < < < < < < , $ $ $ o . . .         ",
"        . . . * n D m E } } } } } } } } } } }  . . .V : < < < < < < < < < < ; $ $ $ o . . .         ",
"        . . . * n D m E } } } } } } } } } } }  . . .B : < < < < < < < < < < $ $ $ $ o . . .         ",
"        . . . * b n n J }  .}  .} } } } } } } Q / _ N > < < < < < < < < < $ $ $ $ # o . . .         ",
"                & * & r D D D Q } } } } } } E i 9 w 8 < < < < < < < < $ $ $ @ o o o o               ",
"                . . . 2 m D m E } } } } }  .E 8 , , < < < < < < < < $ $ $ $ o . . .                 ",
"                . . . 2 m m m E } } } } }  .R 8 , < < < < < < < < < < $ $ $ o . . .                 ",
"                . . . 2 D m m E  . . .} } } J 6 < < < < < < < , , < $ $ $ $ o . . .                 ",
"                      & 2 2 1 d E J J } } } } l k k f < , < ; $ $ , # o o o o                       ",
"                        . . . r D m m } } } }  .o.o.R : , < ; $ $ $ @ . . .                         ",
"                        . . . r D m m Q } } } }  . .V : , , , $ $ $ @ . . .                         ",
"                        . . . r J D D Q  .}  . . . .V : < < , $ $ $ @ . . .                         ",
"                        . . . 1 e e e c E E R g a a i ; $ , $ o @ o o . . .                         ",
"                              . . . . s D m b > , , , $ $ $ # . . . .                               ",
"                              . . . . s D m b > , < < $ $ $ $ . . . .                               ",
"                              . . . . s E D N > , , , $ $ $ # . . . .                               ",
"                                . . . e y y y t 0 0 7 # @ @ @ . . .                                 ",
"                                      . . . X j D m x O . . .                                       ",
"                                      . . . X j D D x O . . .                                       ",
"                                      . . . X j D D x O . . .                                       ",
"                                      . . . X y h h s O . . .                                       ",
"                                              X X X X                                               ",
"                                              . . . .                                               ",
"                                              . . . .                                               ",
"                                              . . . .                                               "
};
