/* XPM */
static char *_136742bc9034180f1e88bf26668dd40hxIkv7PeJXQuODaG[] = {
/* columns rows colors chars-per-pixel */
"50 50 252 2 ",
"   c #990708",
".  c #981709",
"X  c #A01E1A",
"o  c #9B2616",
"O  c #992C16",
"+  c #A82D08",
"@  c #BB260C",
"#  c #B7360D",
"$  c #BB340D",
"%  c #A82819",
"&  c #BC2B14",
"*  c #B62A1C",
"=  c #A73717",
"-  c #BB3513",
";  c #BD3A14",
":  c #B7391A",
">  c #BB3C1B",
",  c #9C3424",
"<  c #A42A26",
"1  c #A43D23",
"2  c #A83A27",
"3  c #B83924",
"4  c #BB3C25",
"5  c #B43629",
"6  c #C02B0E",
"7  c #C1330A",
"8  c #C13C14",
"9  c #C6391A",
"0  c #C33D1A",
"q  c #C43F2A",
"w  c #AE4016",
"e  c #B4461A",
"r  c #BD411C",
"t  c #994532",
"y  c #A4452A",
"u  c #A84728",
"i  c #BD4323",
"p  c #BE4925",
"a  c #B3462A",
"s  c #B54629",
"d  c #BC4C2C",
"f  c #BA522C",
"g  c #AB4936",
"h  c #B94734",
"j  c #BC4C32",
"k  c #AE5638",
"l  c #BE5233",
"z  c #B5533C",
"x  c #BC533C",
"c  c #BC5B3E",
"v  c #C54216",
"b  c #C4441B",
"n  c #C7461B",
"m  c #CE4D18",
"M  c #CA4B1D",
"N  c #C24523",
"B  c #C84625",
"V  c #C54B24",
"C  c #CB4D22",
"Z  c #C2462B",
"A  c #C44D2B",
"S  c #CB4C2C",
"D  c #CC5225",
"F  c #C65429",
"G  c #C4522D",
"H  c #CB542B",
"J  c #CD5A2E",
"K  c #D15424",
"L  c #D45826",
"P  c #D1552A",
"I  c #D25C2D",
"U  c #C54A33",
"Y  c #C45433",
"T  c #CA5532",
"R  c #C55A35",
"E  c #CB5B33",
"W  c #C8563B",
"Q  c #C45B3B",
"!  c #CB5D3A",
"~  c #D15C32",
"^  c #D25A38",
"/  c #D3632E",
"(  c #CD6337",
")  c #C5603D",
"_  c #CC623C",
"`  c #D46234",
"'  c #D96534",
"]  c #D66C35",
"[  c #D2633A",
"{  c #D5693C",
"}  c #DA6A39",
"|  c #9F5D51",
" . c #A94E48",
".. c #B84948",
"X. c #AA5749",
"o. c #AC5E4C",
"O. c #B45444",
"+. c #B85847",
"@. c #BC5C44",
"#. c #B35B4A",
"$. c #BA5D49",
"%. c #B35852",
"&. c #AE654C",
"*. c #BA6347",
"=. c #BB624C",
"-. c #AD675D",
";. c #B46655",
":. c #BD6B55",
">. c #B56B5C",
",. c #BA6C5B",
"<. c #BA735A",
"1. c #BA725D",
"2. c #B26D63",
"3. c #BA6A61",
"4. c #AE7367",
"5. c #B67265",
"6. c #BC7462",
"7. c #BC7767",
"8. c #B4746A",
"9. c #BC7C6E",
"0. c #B37B73",
"q. c #BC7D72",
"w. c #C25D43",
"e. c #C85947",
"r. c #C85C47",
"t. c #C46444",
"y. c #CC6343",
"u. c #C46947",
"i. c #CD6A45",
"p. c #C2644B",
"a. c #CC6649",
"s. c #C56B4D",
"d. c #CB6B4C",
"f. c #D16443",
"g. c #D26747",
"h. c #D36B45",
"j. c #D26C4A",
"k. c #CC714D",
"l. c #D4724C",
"z. c #D87448",
"x. c #D9744B",
"c. c #C36C53",
"v. c #C56855",
"b. c #CB6E52",
"n. c #D36C51",
"m. c #C57256",
"M. c #CB7353",
"N. c #C6755C",
"B. c #CA745B",
"V. c #CC7A5C",
"C. c #D47453",
"Z. c #D47B54",
"A. c #DA7A53",
"S. c #D2755A",
"D. c #D47C5B",
"F. c #D97D59",
"G. c #C66C61",
"H. c #C37564",
"J. c #CA7662",
"K. c #C47B65",
"L. c #CB7D64",
"P. c #CA7468",
"I. c #C47C6A",
"U. c #CA7D69",
"Y. c #D27D63",
"T. c #D07F6D",
"R. c #C37C70",
"E. c #BD8374",
"W. c #BA8579",
"Q. c #BC857B",
"!. c #CC835C",
"~. c #DD835C",
"^. c #DF8C5E",
"/. c #CB8166",
"(. c #C6836C",
"). c #CC836B",
"_. c #D48263",
"`. c #D3856B",
"'. c #DA8968",
"]. c #C38373",
"[. c #CA8573",
"{. c #C68875",
"}. c #CC8974",
"|. c #C38579",
" X c #CB867C",
".X c #C48B7C",
"XX c #CB8D7B",
"oX c #D68773",
"OX c #D38C73",
"+X c #D28B7A",
"@X c #C7907C",
"#X c #CE937D",
"$X c #D3937C",
"%X c #D9957A",
"&X c #BC8C84",
"*X c #BB8C88",
"=X c #BC9089",
"-X c #C78280",
";X c #C48D82",
":X c #CA8E82",
">X c #D38B82",
",X c #CC9384",
"<X c #CE9886",
"1X c #C69588",
"2X c #C5958C",
"3X c #CC9489",
"4X c #CD9A8C",
"5X c #D39583",
"6X c #DA9386",
"7X c #D49A85",
"8X c #DB9B83",
"9X c #D3968A",
"0X c #D39C8C",
"qX c #DA9D8B",
"wX c #C79D94",
"eX c #CC9C93",
"rX c #D39D93",
"tX c #D59D96",
"yX c #D4A08F",
"uX c #DAA28D",
"iX c #CCA397",
"pX c #CDA39C",
"aX c #D4A394",
"sX c #DAA493",
"dX c #D4A897",
"fX c #DDA996",
"gX c #D3A59A",
"hX c #DAA699",
"jX c #D5AA9C",
"kX c #DBAB9C",
"lX c #DDB39E",
"zX c #E0AE99",
"xX c #E4B29D",
"cX c #CFA9A4",
"vX c #D4ACA3",
"bX c #D4ACA7",
"nX c #DAADA3",
"mX c #CDB0A7",
"MX c #D6B1A5",
"NX c #DCB2A4",
"BX c #D4B3AB",
"VX c #DBB6AA",
"CX c #DCB9AD",
"ZX c #D6B7B2",
"AX c #DBBBB3",
"SX c #E1B4A3",
"DX c #E3BBAC",
"FX c #E0BEB5",
"GX c #DEC0B5",
"HX c #DCC2BA",
"JX c #E4C4B8",
"KX c #E5CDC4",
/* pixels */
"c.x.J } ` H C N > 7.{ C H H J F N b :.! J ` E ~ F v _ B.9 B S S Z T V @.Q b V V i i J H _.y.H H H J ",
"q.V.j.Z.y.h x l a Q.k.R ) ! l f l Y 9.c w.@.f Y l j =.P.5 h U W ! t.R o.N.x j l l t.d.Q {.u.G Q R R ",
"SXsXaX#X#XBXQ.Q.0.2X0.q.8.*X4Xs.V./.OXL.}.U.;X2X<XXXXX5X+X$X XBX3X,X,X0XaX4X}.jXVXL.J.J.$XL.V./.(.,X",
"V N J D { 5.O a = % 2 2 o  .%XL ` / D D V 8 r.B.N V D V F I ~ U.V V F H D H C D.uX; b J L I ` L s.I.",
"f l ) _ i.4., l f a y , o  .<Xy.C.x.j h j 4 #.1.s d u a j j x ,.U U l R ( _ F _.aXp l Y f l x d 1.Q.",
"MXJXAXbXBXJXjXiX<XVXaX4XeXVXJX<XdX<XvX1XyX<XiXnXeXvXwX*X&X2X*XiXeX2X0.wX(.}.H.{.aX`.OXK.4X|.#X].,X0X",
"T.S.G T ! ! _ ( ` OXh.I _ G E H A T }.` ` ! H R G W c.o.y g 1 2 g 2 o 0.! i H T E ' ` ` 6.A V F L I ",
"I.@.V p F J J G F (._ [ ! A i A i _ ,.d p i > > p 0 @.t = t 1 1 , o . >.Y i A H A l R Y &.3 i Z 4 ( ",
"aXyX`.}.}.kXyXqX8XdX0XqX7X7XGXgXbXAXAXcXnXeXwXBXVXBXHXZXcXpXpXZXvXjXpXHXVXkXkXaXpXvXBXvXAXhXVXnXvXvX",
"[ { h.{ l.3XW R _ } { { ~ Z.5XE j.r.g.g.n.e.9X+Xj.b.l.C.M.A.A.7XZ.j.C.y.j.a._ d.aX_ j.f.f.n.n.W P.%X",
"V V G C l >.- > : ; J } I l.;.- C V b > & @ p.Y ; ; r M b b b K.F F r ; ; r : R >.: A A 0 0 & @ h M.",
"<X2XpXgXpXZX1XdXhXiXeXnXkXbXZXrXrX,XhXtXtX9XCXNX0X:X<XjXdXaX4XHXMXdXlXlXdXXX@XlXNX:X5XXXrXgXhXtXjXAX",
"].#Xu.c.M.m.m.m.s.aXJ.j.n.j.n.S.n.v.9XS.S.D.F.'.^.~.'.uX~.~.^.^.~.^.^.fX).W j.h.x.x.j.z.%X).S.S.F.C.",
"X.g + = # w # = # <.2 v V b 0 9 & & w.8 $ b n n N n d f m m M / / / K !.O.$ : - b ' ~ C u.: ; $ n M ",
"iX1X6.5.5.E.Q.1XE.mXeX:XXX.X,X{. X XgXXX,X].E.q.2X.X=XdX#X(.E.$XXX$X).dX1XI.,XXX;X;XsX0XvX<XXX9.].].",
"A.l.j.a.d.7X'.'.V.!._.T.J.5X0XF.'.Y.D.V.J.).4X-.;.>.;.;.&.&.4.@Xt.b.l.x.l.C.x.%XsXC.'.`.'.Y.S.M.aX`.",
"M C M - ; u.M v v M v ; 7 > c v 0 ; $ ; ; $ #.o . . % O = = O t 7 - 9 n ' ' K M.@.M D ; # ; ; $ B.Q ",
">.I.I.(.[.iX}.).).).K.6.U.#X=X2.9.6.>.2.9.].4X2.-.4.8.4.4.4.W.Q.3.[.I.5.U.+X).<X4X).).).}.I.,.P.vXXX",
"9XCX8X5X%XqX#X$X%XlX7X'.%XqX8X`.}.`.vX`.'.%X%XOX).7X7X5XJ.oX}.OXoX6XP.cXK.v.s.C._.D.F.D.aXL.c.D.D.D.",
"w.Y 7 v v M M m v k.D K C $ > v - v c.C M 8 8 8 ; $ p z v C v 0 9 6 @ v.G $ n K K H P D #.- 0 8 n P ",
"@X}.M.:.:.k.k.Z.d.,XI.V./.L.B.c.:.oX1X,.,.c.@.#.m.H.R.q.B.J.V.B.m.v.e.3XU.B.m.s.*.,.K.:.W.+.=.v.$.B.",
"uXkXfX$XuXVX<.<.<.!./.I.6..XJXXX5XqXqX6XtX+XcXnXrX5X8X7X8X%XOXAXkXsXhXsXtXfXqXlXMXB.Y.B.'.`.Y.~.$XhX",
"; - b m J E.e e f e = + + = ;.8 C b 9 9 9 @ e.v.$ 8 0 8 b M F c.; v v M M M v l.7X$ 8 M D D P m t.K.",
"c.M.L.V.`.iX7.7.!.&.X.;.X.o.*Xv.M.c.b.v.p.e. X9Xp.c.*.O.*.$.,.E.d.p.#.d.b.M.t.$XnXw.c.c.t.=.N.c.q.2X",
"KXNX9XfXhXfXtXxX9XFXSXxXkXhXSXkXkXvXFXxXxXzXSXSXkXkXnXJXSXVXNXJXDXCXSXJXsXuXqXzXSXsXzXfXCXdXgXiXdXgX",
"T.e.& 9 9 9 B C # :.` n M C C b v 0 c.F K P D C b 8 G Z.L I I K M N 9 j F 8 v 8 ; v M M !.f = # w w ",
"aXP.W e.a.t.a.c.@.W.V.t.d.t.) @.@.t.R.:.s.c.x t.w.w.:.#XM.Y.D.w.@.r.x #.).p.z *.p.b.M.k.;X&.k &.k k ",
"hX9X X3X:XvXqXhXkXkX0XdXkXMXbX3XtXaXnXrXcXcXBXtXgXnXhXSXNXhXhXJXaXhXuXuXfX7X$XDXJXkXMXGXJXdXkXkXAXaX",
"= 3 3 % % c.E D C C D N 8 W %.4 4 * * * * % G.U B B S N C C j $.8 n B K L I K Z.V.C H N N V V ; ).t.",
"2 2 2 2 < 7._ Y R E l d j w.%.< < < X < < < 3.h 5 Z Y Y ! Q z X.i j h a h.Z.y./.6.( y.R d h s F XX:.",
"q.=XW.;X.X4X].XX}.eX].6.R.5X-X7.7.3.*X;X,X0XlXuX$X7X7XeX X;X4XrXW.rX5XiXiX<X3XaXdX1X7X7XBX4X].<XkX7X",
"Y.B.C G I E H E K OX@.P T B P S U U T.' / ' ] } } ] z.c.V A H ~ H J D '.d.b A H J H J J ).w.C F D ` ",
"K.p.V d G J E R F }. .E ! Q Y Z 3 4 B.( J E E ( u.( s.:.C f f E E ! F ).@.A j f T ( R H {.@.i j h R ",
"aXrXXX].].iXXX#X(.NXdX#X}.<XdX5X9X0XkX0XaXaXvXW.|.1X.X1X].9.9.<Xm.L.m.).OX).c.].,XV.L.m.#XK.P.P.:X4X",
"S B H H Y ).A A H Y G ^ H M.OXH ! J ~ Y H V +X#.= a s = u a u (.` ~ ` I D V n t.}.H ` ` J I A ; V.J.",
"T G ! ! a ,.! p d N G _ ` t.).H E J J d d b N.g % 1 a f k f t 9.z.x.A.T d U i z W.G ! x G Y Y A m.K.",
"0XvX0X0XeXVXhX.X#XlXaX0X0XdXdX).$XXX9XH.L.OXaX,Xq.;X1X.XI..X;XgX5X0XI.2X2.1.&.<.@X*.(.;.].K.H./.}.}.",
"U.D.Y R [ ~ E [ ` OXh.J ! T E T S R [.( { ! A R Y W s.v.H ! S H W T q [.z O w u s R f f 2.A V F I ~ ",
"I.w.V p A H J R J (.i.[ _ G V A i _ 6.l d p 4 > p N c O.H R W S Z q * P.y 1 1 u u y y y | i N U i ^ ",
",XOXV.B.J.aXOXOX).,XOX}.`.OXMX3X4XkXvXeXtX|.wXBXMXbXCXCXgXaXuXVXqXqXtXDXyX@X1X@X=XW.wX2XwX;XtX3X2XaX",
"~ ` } ` j.XXZ A J I ~ ' P A.].F y.T ^ f.f.Z  XY.! ) _ f.[ h.{ 6Xl.[ _ W f.E T y.<X2 U ^ U h h 5 %.OX",
"A A Q T w.5.: N i r ~ z.[ F.2.r G G V N * & v.W b r p D F V F K.R J J B r p r i.2.O 2 2 : < * @ h V.",
"gX|.:XeX4XbX1XhXnXbXjXVXMXVXHXgXhXhXbXkXzX9XFXDXhXeXgXgX9XhXrXFXNXdXdXVXdX9X0XCXGXgXrX0XpXgXgXtXMXGX",
"].s.h w.Q l x h 5 1X~.j.j.g.j.j.a.j.XXZ.A.z.A.n.j.t.D.>XU j.g.f.e.h.! J.k._ _ y.) i.j.h.8XD.l.j.i.f.",
" .z s j 5 % % % . 2.( v C V b e > 8 =.s V G b V > - d v.& * 0 0 N A r g Q r : r > p J D H.! b F D C ",
"HXBXjXgXwXtX1X3X|.BX<X,X0XyXiX.X9XhXZXwXgXwX2X1X0XaXiXbX3XtXeXcXgXgXaXmXAXgX1XpXMXaXyX,XVX<X}.#X,X<X",
"C.S.D.Z.'.xXz.j.l.h.l.j.y.B.hXa.C.n.n.n.S.e.6X-X..@.......e...gXD.S.C.D.C.D.A.8XlXR y.g.h.x.x.x.L.5X",
"; # b D F (.I ~ } D - - - 4 o.; D N B B 6 @ e. .            % $.; ; > M M M 8 C.9X$ > D C b V v @.7.",
"].<X4XXXXXBX:XXX].].q.{.I.9.eXI.I.6. XI.I.P.tXwXq.].7.2.8.8.8.2X}.K.1.I.K.L.c.{.gXm.K.=.<.E.;X7.;XcX",
"$X.X+.O.+.+.O.$.z 4XJ._ n.e.f.a.e.e.:Xd.d.C.C.~.~.~._.}.b.b.a.C.d.b.h.$XK.T Q ( [ h.i.[ OX3.+.O.+.+."
};
