/* XPM */
static char *_d3206b9cc284eced32817ac79cf3b56hsJGZZ29wu9NHowS[] = {
/* columns rows colors chars-per-pixel */
"50 50 58 1 ",
"  c #28272D",
". c #2B2A2E",
"X c #322F2F",
"o c #35312E",
"O c #3B332D",
"+ c #2E2D31",
"@ c #312F31",
"# c #353333",
"$ c #383634",
"% c #3A3634",
"& c #3B3735",
"* c #383637",
"= c #383737",
"- c #3C3734",
"; c #3A3837",
": c #3D3936",
"> c #3E3A37",
", c #383738",
"< c #3A3838",
"1 c #3B3A3A",
"2 c #3C3A3B",
"3 c #3C3B3B",
"4 c #3E3B3B",
"5 c #3D3C3B",
"6 c #3F3D3D",
"7 c #40352D",
"8 c #41372F",
"9 c #403730",
"0 c #443932",
"q c #423A35",
"w c #403A37",
"e c #413C39",
"r c #403C3A",
"t c #443F3B",
"y c #403E3E",
"u c #403F3F",
"i c #453F3C",
"p c #42403F",
"a c #45403D",
"s c #46403C",
"d c #46413E",
"f c #49423E",
"g c #4A433E",
"h c #4C443F",
"j c #434141",
"k c #444242",
"l c #444343",
"z c #454343",
"x c #454443",
"c c #454444",
"v c #474545",
"b c #484341",
"n c #4A4643",
"m c #4C4541",
"M c #4E4742",
"N c #484646",
"B c #514943",
"V c #514944",
/* pixels */
"OO6y.   .;%oOO;p#... #&#oOO46..  X&&#OO&6$  . #;#o",
"&&6#&#@4a44ee$6;##+$aa;6e:;y#;##ya:444&6;#$+;at;6e",
"466#&#:ma46jj4j####afa<jkyyy###;mfe6pj<j;#;#afs4pj",
"Nj&&&4vv<jj6vv<;:<lvp5v6Nxp#:%4xv;jyjvv<-;;jvp;x4x",
"6<#&:&<4&,<&<4#&:-<4;;<#46;#&:&;e;4&<66##:&&;<#4;4",
"y++#vy%7O%;4x;++yv:97O<&6p++#np%87#:<j$+.yv&7wO;;y",
"<###4<w%XX$<4&##<<3:oo$#6<###44:$.#+<6;o#;44:O###4",
"<ie&#6k#+ #646h:&&j6.+ 3y<fs;#yj#+.#66wh4%&jy. .44",
"&#OO$pj&&&j6%%OOO4l4;;>l<;oOO&pk%;-j6;;OOO6j4&&6j<",
"&#OO$34&&&6<;#oOo;6;-%;4#;oOOO44;%%4;;#oOO$6;&$;6#",
"6$%&j6#$#O%6x:;$:x<;%OO:vy&:#jy#%oOOjj;:$4j<&#OO;x",
":%e:###.oO&#%%:5;##.oo%;#:$e4####o;%#;%:4;##@XO%;;",
"0Oxx@+++#44;775v<.++ ;4:&0Oxk# +.#45;8O4v4 ++.:4;o",
"OO4<+ ..####OO;6#+  #;##OOo<;+  .####Oo;4#. .@&#&o",
"46j#;;&mBsplp;v<#;&aBh6vv46j#&;;BBslxx<l;;4#sBn4vx",
"k6###&6f;446jj;###4ju;5<jj4<##&yh%444kj;#o#4ky:6;j",
"k6&4::xa3juuvj;%q-pxe4j4xN6;::4kx4l6uxv;::;pay6j6x",
"3#@#y4%:&&##<&##46$%%%;#;;###y4%;O%%;4###<4;%q&&#;",
"y++#ke&OOo#-j<.X6a:OOO##jj++#j4%OOo#;j;+.6k;7Oo##p",
"<ee&#yl#++#y33:-#;kp+#.46<e4;%pa;++#6;4e<&:p6@@.;6",
";ewO#6j#@X&4;;:%&;j;#+#<4;eqo%4y#o+<e;;w&O;p;Xo#6<",
";oOOOjj4e4v6-;OOO;j4::px&;oOOOjk>w:v4;#OOO4x44:6x;",
"4o%O;5#;O$$4y#%O&4;##O;:64#Oo46#;#O#4u#OO&5;;#O%;6",
"4&;-66##oOO<4%;;:6;#ooO#44%:;66##oOO4u%%;44;##oO$6",
"q-kk#.++#44%%q4v4++@X;44Oq%jj#+++#44#-q4v;+++X;4:#",
"OOyp..  .;;oOO;j;    #;#OOOpp. . +&&oOO;j&   .#;$o",
"-;y####ef:66w%e;##X#pt;65;;6#&##ef:4ye#6,##@&tp;e4",
"wy4##&:nf466p4p###&ahs<jj646###&nfe6aj4j<##&afa4pj",
"vj&&-4vv;jjjNv<-4&jvp;N6vvj:;;4nN;jjuvv<&;%avp;j6v",
"6;#&:&<4&:;<66##:&;4;;;&44;##:%4e&<;<66#&;;;:e;4#5",
"6++#xp&7O&<<k&++yN;O-O<<ju.+#x6%O7##<c$++6v:O7o;;u",
"<###44w%X@#<6###;;4woX@$<<##;;4w&@##<6###<;4;o#o#6",
"<aa&$6c#+ #66yh:%#xu...4p;fa$$5x#+ #y44s:#;l4+..46",
"<&7O$jj;;;jy;#%7O4x4%:4x;;&7O$pp;;;k4;;O7Oeju%;6l;",
"&oOOO<5<:%6;;#X7o;6<:#;w;;oOOO65;-&6:;#oOO%4>%%:4;",
"6%%&jp#$oOOjk:-O4v<#;OO:j6$%#ju#&#OOyk;:%4x;##OO;x",
":%64###.oO%#-%-4;##+oo&;#%%q4###Xo&#;%-:6<###.$$%#",
"qOjv++++#44&7q4N4 ++.;5<O0;jj# + #e4%88;v< ...;4;$",
"OO&&+  .####OO%4#  .####%OO<;@  +###o%O&<#.  #%##o",
"4yj#&,;BBajvj<j;:;#sBn4vx46j#;;;mVaknj;j<;;#sBBevl",
"jy%##;en;454ju<###4xe:6<jj6###%4l46<<jj;###4ap:45p",
"ky%::4jj<puuvx<::&pjy6j6jvp;w>4ll<j6jvv;:e%jx66j4v",
"4###y4O%%$;%6###4e&&-O#;;4#@#w5$&O&&$6##o46;-O#;;;",
"6+.#x4q%Oo#:j< +6j;&OO##ju#.#x4%OO##,j;.+6j;8Oo##6",
";e4;;4k##@#>64:;&$j6#..;6<ee;#6l;++#6;4s<;&jp.+.;6",
"&e:O#6p##.;5<;w%O&j<.##4<;eeO$6p#o+;4;;e&o<j4o##44",
";oO7Ouj;4%l4;#o7O:x5>46l;#oOOOjv4w4k6&oOOO<x6::6x;",
"4o&O44;:O#%4u%%O$6;%;O&;u4O%o45#;&O%46:%O%e;;%O;;6",
"4&;&6;##oOO46;:;;4###OO&44%:;44##oOO;y;%%44###OO$4",
"q%xs#+++#;<$Owex6+++.;4;Ow%ap#+..o:4#wwwx4++.#;5;o"
};
